<?xml version="1.0" encoding="utf-8"?>
<!-- Generator: Adobe Illustrator 26.0.0, SVG Export Plug-In . SVG Version: 6.00 Build 0)  -->
<svg version="1.1" xmlns="http://www.w3.org/2000/svg" xmlns:xlink="http://www.w3.org/1999/xlink" x="0px" y="0px"
	 viewBox="0 0 3240 2430" enable-background="new 0 0 3240 2430" xml:space="preserve">
<pattern  y="4000" width="71.22" height="71.22" patternUnits="userSpaceOnUse" id="Reef_1_00000171000880036344747280000005135158696619846552_" viewBox="0 -71.22 71.22 71.22" overflow="visible">
	<g>
		<rect x="0" y="-71.22" fill="none" width="71.22" height="71.22"/>
		<rect x="0" y="-71.22" fill="#EBDB99" width="35.61" height="71.22"/>
		<rect x="35.61" y="-71.22" fill="#DCCC8C" width="35.61" height="71.22"/>
	</g>
</pattern>
<g id="Patterns" display="none">
	<g id="Reef_1" display="inline">
		<rect x="-179.28" y="1547.1" fill="#EBDB99" width="35.61" height="71.22"/>
		<rect x="-143.67" y="1547.1" fill="#DCCC8C" width="35.61" height="71.22"/>
	</g>
</g>
<g id="Sky">
	<linearGradient id="SVGID_1_" gradientUnits="userSpaceOnUse" x1="1620" y1="-9.094947e-13" x2="1620" y2="659.6129">
		<stop  offset="0" style="stop-color:#73BAF4"/>
		<stop  offset="1" style="stop-color:#93CEFE"/>
	</linearGradient>
	<rect fill="url(#SVGID_1_)" width="3240" height="659.61"/>
</g>
<g id="Water">
	
		<linearGradient id="SVGID_00000111872197042313699580000005613354902964350885_" gradientUnits="userSpaceOnUse" x1="1620" y1="659.6129" x2="1620" y2="2430">
		<stop  offset="0" style="stop-color:#7CC0F0"/>
		<stop  offset="1" style="stop-color:#0C68BA"/>
	</linearGradient>
	<rect x="0" y="659.61" fill="url(#SVGID_00000111872197042313699580000005613354902964350885_)" width="3240" height="1770.39"/>
	<rect y="638.71" fill="#ABDDFF" width="3240" height="37.16"/>
</g>
<g id="Terrain">
	<polygon fill="url(#Reef_1_00000171000880036344747280000005135158696619846552_)" points="0,1151.23 77.42,1626.58 
		180.39,1765.16 518.71,1736.52 832.26,1765.16 1134.97,1667.61 1448.52,1731.87 1738.06,1694.71 1928.52,1530.58 2092.65,1630.45 
		2163.87,1714.06 2718.97,1640.52 2996.9,1635.1 3111.48,1693.16 3240,1679.23 3240,2430 0,2430 	"/>
</g>
</svg>
