<?xml version="1.0" encoding="utf-8"?>
<!-- Generator: Adobe Illustrator 26.0.0, SVG Export Plug-In . SVG Version: 6.00 Build 0)  -->
<svg version="1.1" xmlns="http://www.w3.org/2000/svg" xmlns:xlink="http://www.w3.org/1999/xlink" x="0px" y="0px"
	 viewBox="0 0 3240 2430" enable-background="new 0 0 3240 2430" xml:space="preserve">
<pattern  y="4000" width="71.22" height="71.22" patternUnits="userSpaceOnUse" id="Reef_1_00000077282531171907651920000006609976611856116369_" viewBox="0 -71.22 71.22 71.22" overflow="visible">
	<g>
		<rect x="0" y="-71.22" fill="none" width="71.22" height="71.22"/>
		<rect x="0" y="-71.22" fill="#EBDB99" width="35.61" height="71.22"/>
		<rect x="35.61" y="-71.22" fill="#DCCC8C" width="35.61" height="71.22"/>
	</g>
</pattern>
<g id="Original_map" display="none">
	<g display="inline">
		<g>
			<path fill="#F3F3F3" d="M3239.86,1678.97c0,249.84,0,499.69,0,749.53c-0.5,0.5-1,1-1.5,1.5c-1078.08,0-2156.16,0-3234.24,0
				c0-417.2,0.01-834.4-0.05-1251.6c0-6.18-0.84-12.37-1.15-18.56c-0.04-0.83,0.78-1.69,1.21-2.54c3.69,0.45,3.7,3.44,4.23,6.08
				c0.43,2.15,0.2,5.41,1.49,6.22c3.21,2.01,2.62,5.1,3.48,7.76c0.37,1.16-0.12,3.1,0.56,3.58c5.59,3.9,3.4,11.04,7.17,16.13
				c3.77,5.09,4.52,12.42,6.6,18.76c0,0-0.08,0.48-0.08,0.48s-0.08-0.53-0.08-0.53c1.1,0.55,2.2,1.11,3.3,1.66
				c-0.2,5.09-0.11,10.08,4.67,13.44c3.74,9.98,7.26,19.99,12.06,29.62c2.42,4.85,2.57,11.2,4.74,16.61
				c1.05,4.45-0.35,9.99,5.49,12.3c0.26,1.44,0.53,2.88,0.79,4.31c-1.64,3.39-0.83,5.85,2.75,7.26c0.48,1.54,0.95,3.09,1.43,4.63
				c0.09,1.94-0.59,4.81,0.42,5.66c3.1,2.59,3.09,5.91,3.8,9.27c0.26,1.21,2.18,2.07,3.34,3.09c0.35,0.58,0.7,1.16,1.05,1.73
				c0.08,0.95,0.16,1.89,0.23,2.84c-1.33,3.96,2.98,6.16,3.2,9c0.54,6.79,3.04,12.76,5.46,18.86c1.66,4.18,3.35,8.36,5.03,12.53
				c0.05,6.4,0.15,12.81,0.15,19.21c-0.01,7.64-0.11,15.28-0.16,22.91c-0.08,14.93-0.16,29.85-0.24,44.78
				c-0.1,6.46-0.21,12.91-0.31,19.37c-3.14,0.59-3.45,2.84-3.54,5.52c-0.38,11.06-0.95,22.12-1.33,33.18
				c-0.06,1.66,0.51,3.34,0.79,5.01c-0.02,11.98-0.05,23.96-0.07,35.94c-0.09,3.94-0.19,7.88-0.28,11.83
				c-2.47,0.71-3.46,2.21-3.52,4.91c-0.41,16.2-1.03,32.39-1.54,48.58c-0.18,5.58,1.18,10.77,5.21,14.73
				c1.73,1.7,3.51,2.98,4.3,5.52c0.29,0.94,2.86,1.17,4.39,1.72c0.14,1.43,0.29,2.86,0.43,4.29c1.63,2.55,3.26,5.1,4.95,7.62
				c0.03,0.04,0.77-0.41,1.18-0.63c5.32,5.27,9.2,11.65,13.64,17.6c4.69,6.29,10.11,12.17,14.67,18.38
				c3.61,4.91,11.86,6.63,11.18,14.81c-0.07,0.87,1.72,2.3,2.92,2.78c5.79,2.33,5.26,9.23,9.65,12.87c2.89,2.39,3.5,7.35,5.9,10.59
				c4.1,5.52,10.97,8.85,12.86,16.17c5.41,0.33,4.47,6.35,7.87,8.83c2.76,2.01,4.16,5.88,6.39,9.25c6.83,0,14.05,0,21.27,0
				c7.5-0.08,15.01-0.15,22.51-0.23c1.47,0.04,2.93,0.09,4.4,0.13c4.72,0,9.44-0.09,14.16,0.02c2.93,0.06,3.91-1.59,4.17-4.1
				c8.88-0.19,17.77-0.39,26.65-0.58c7.92,0.01,15.84,0.1,23.76,0c2.82-0.03,5.4-0.9,6.55-3.93c14.67-0.37,29.35-0.66,44.02-1.18
				c2.91-0.1,6.74-0.13,8.48-1.86c3.54-3.51,7.48-3.11,11.55-3.18c18.14-0.28,36.29-0.3,54.3-3.01c1.46-0.07,2.92-0.13,4.38-0.2
				c4.47-0.02,8.95-0.03,13.42-0.05c4.47,0,8.93,0,13.4,0c3.05,0.03,6.1,0.06,9.15,0.09c3.53-0.17,7.49,1.41,9.81-3.21
				c0.49-0.98,3.11-1.18,4.77-1.26c9.2-0.44,18.4-1.06,27.6-1.02c15.68,0.07,31.36,0.55,47.04,0.95c4.01,0.1,8.57-1.38,11.09,3.71
				c0.34,0.69,2.26,0.79,3.45,0.82c2.98,0.07,5.97-0.07,8.95-0.12c5.96,0.05,11.92,0.09,17.88,0.14c3.9,0.08,7.79,0.16,11.69,0.23
				c14.65,0.94,29.29,1.92,43.95,2.79c3.98,0.24,7.99,0.03,11.97,0.26c1.62,0.09,3.86,0.3,4.7,1.35c2.72,3.39,6.36,3.56,10.06,3.69
				c10.22,0.34,20.44,0.58,30.67,0.82c5.93,0.14,11.84-0.25,17.41,2.82c2.01,1.11,4.84,0.93,7.3,1c12.47,0.38,24.93,0.64,37.4,0.94
				c0.27,2.32,0.94,4.21,3.85,4.12c3.34-0.1,6.69-0.1,10.04-0.14c4.45,0.03,8.9,0.05,13.36,0.08c4.49,0,8.98,0,13.47,0
				c8.96,0.05,17.92,0.09,26.88,0.14c4.34-2.31,9.34-1.69,14.01-3.92c6.45-3.07,14.07-3.68,21.14-5.5c1.56-0.4,3.9-1.19,4.25-2.31
				c1.16-3.71,4.16-2.68,6.59-3.47c7.55-2.48,16.98,0.67,22.66-7.48c0.23-0.32,0.9-0.38,1.39-0.48c6.43-1.35,12.89-2.59,19.29-4.07
				c1.77-0.41,3.36-1.55,5.04-2.34c1.25-0.59,2.54-1.69,3.77-1.63c5.48,0.29,9.97-2.05,14.39-4.79c1.21-0.19,3.32-0.09,3.5-0.63
				c1.6-4.68,5.65-3.79,9.1-4.45c1.86-0.36,4.99-0.94,5.18-1.9c0.72-3.55,3.45-3.16,5.66-3.75c7-1.88,14.04-3.62,21.05-5.49
				c0.92-0.25,2.27-0.75,2.5-1.45c1.39-4.1,4.97-3.34,7.98-3.94c1.94-0.39,3.99-0.62,5.73-1.46c6-2.87,13.23-2.98,18.27-8.07
				c0.4-0.41,1.44-0.13,2.17-0.27c11.27-2.11,22.53-4.23,33.8-6.36c0.24-0.05,0.5-0.05,0.73-0.13c8.28-3.13,16.82-5.56,25.15-8.42
				c5.33-1.83,10.6-3.29,16.05-4.44c0.71-0.15,1.7-0.4,1.99-0.92c2.39-4.32,6.56-3.63,10.41-3.87c3.06-0.15,6.11-0.29,9.06-0.43
				c0.7-2.23,1.2-3.82,1.7-5.4c3.96-0.02,7.92-0.04,11.88-0.06c2.48,5.18,7.09,6.06,12.16,6.01c2.47-0.02,4.93-0.08,7.4-0.13
				c2.99,0.16,6.11,0.93,8.94,0.32c4.19-0.9,4.64,3.92,8.03,4.24c9.03,0.85,17.97,2.09,26.73,4.86c5.98,1.89,12.41,1.5,18.69,3.64
				c8.72,2.97,18.29,3.44,27.5,4.98c8.89,3.2,17.96,5.01,27.5,4.97c6.44-0.03,12.9,1.03,19.34,1.78c1.89,0.22,4.88,0.58,5.36,1.72
				c1.91,4.5,5.69,3.29,8.93,3.66c3.89,0.45,8.39-0.46,11.58,1.21c6.84,3.6,13.97,2.86,21.08,3.35c0.75,0.05,1.53-0.03,2.23,0.17
				c0.9,0.25,2.38,0.6,2.49,1.13c1.03,4.91,4.94,3.94,8.26,4.34c5.9,0.7,12.4-1.36,17.35,3.94c0.64,0.69,2.39,0.4,3.64,0.46
				c3.49,0.17,6.99,0.23,10.48,0.42c2.64,0.14,5.49-0.4,6.45,3.47c0.24,0.97,2.77,1.78,4.32,1.93c4.22,0.42,8.47,0.39,12.71,0.67
				c1.45,0.09,3.75,0.1,4.16,0.91c2.25,4.44,6.35,3.14,9.84,3.59c3.95,0.5,8.67-0.48,11.75,1.36c7.46,4.45,15.24,3.21,22.44,1.62
				c5.04-1.11,10.11-2.16,15.22-3c2.9-0.1,5.81-0.19,8.71-0.29c2.96-0.04,5.92-0.09,8.88-0.13c3.58-0.25,8.36,2.31,9.39-3.97
				c9.99-0.27,19.99-0.45,29.97-0.91c1.74-0.08,4.58-0.94,4.93-2.06c1.07-3.44,3.54-3.03,5.94-3.11c7.99-0.25,15.99-0.37,23.98-0.67
				c1.95-0.07,4.86,0.06,5.64-1.07c2.38-3.44,5.64-2.65,8.72-2.77c7.49-0.29,14.99-0.33,22.48-0.63c3.93-0.16,7.96-0.11,10.55-4.18
				c0.57-0.89,2.64-1.18,4.01-1.15c13.92,0.29,27.66-0.95,41.12-4.66c2.41-0.1,4.82-0.19,7.23-0.29c3.01,0.01,6.02,0.02,9.02,0.03
				c3.98-0.16,8.64,1.85,11.61-1.9c1.85-2.34,3.75-2.59,6.21-2.79c2.12-0.17,4.2-0.77,6.3-1.17c10.44-0.7,20.89-1.37,31.32-2.13
				c2.2-0.16,4.85,0.01,6.47-1.14c6.3-4.44,12.17-9.48,18.41-14.01c3.39-2.46,5.76-5.29,7.02-9.37c0.42-1.37,2.67-2.32,4.25-3.16
				c2.33-1.23,6.64-1.88,6.87-3.31c0.74-4.52,5-4.88,7.08-7.59c1.89-2.45,3.73-5.62,6.33-6.7c4.44-1.84,8.51-2.85,10.77-8.12
				c1.34-3.13,5.86-4.74,8.37-7.54c4.14-4.61,7.95-9.48,14.24-11.37c0.87-0.26,2.3-0.96,2.3-1.46c0.04-3.47,3-3.27,4.99-4.33
				c2.47-1.31,5.84-1.84,5.14-6.03c-0.08-0.5,1.62-1.28,2.48-1.96c4.95-3.87,10.4-7.27,14.65-11.8c2.67-2.85,5.03-5.17,9.72-5.27
				c-1.14-3.62,0.05-5.29,3.46-6.05c2.11-0.47,4.99-2.12,5.59-3.89c1.54-4.59,5.47-5.69,8.87-7.71c3,0.55,4.67-0.4,4.42-3.75
				c-0.09-1.19,0.13-2.41,0.2-3.62c1.17-0.32,2.61-0.32,3.45-1.03c2.55-2.13,6.2-3.47,6.21-7.68c5.31-0.58,7.57-5.49,11.46-8.11
				c4-2.7,7.95-5.47,11.85-8.32c2.94-2.15,3.99-6.2,7.6-7.72c2.94-0.08,5.89-0.16,8.83-0.24c3.12,1.28,7.42,1.7,9.12,4.02
				c3.55,4.85,8.63,5.99,13.49,7.99c3.36,2.04,6.72,4.07,10.08,6.11c0.33,0.87,0.62,2.49,0.99,2.51c7.01,0.39,11.61,4.59,15.76,9.59
				c3.32,3.29,9.97,3.07,10.27,9.69c0.01,0.24,2.18,0.39,3.34,0.58c1.48,0.02,2.95,0.05,4.43,0.07c2.89,1.11,5.79,2.21,8.68,3.32
				c0.09,1.7,0.18,3.4,0.28,5.4c6.69,0.5,12.84,1.78,16.36,8.14c0.3,0.53,1.23,0.73,1.89,1.05c4.36,2.11,8.55,4.87,13.15,6.14
				c4.35,1.2,5.38,5.68,8.87,7.2c3.97,1.73,8.24,2.79,12.85,4.3c0.37,1.47,0.83,3.32,1.21,4.88c5.07,2.81,10.48,2.77,15.2,6.92
				c4.47,3.94,11.8,4.71,16.65,9.6c1.24,1.25,2.51,2.14,3.58,3.85c3.52,5.63,5.39,13.07,13.57,14.37c0.51,4.98,3.94,9.14,8.84,10.74
				c0.12,1.34,0.24,2.67,0.36,4.01c1.45,1.05,2.9,2.11,4.35,3.16c4.58,7.63,10.16,14.37,16.54,20.65
				c4.84,4.76,10.95,8.47,13.97,14.97c2.26,3.18,4.52,6.35,7.44,10.45c3.07,0,7.24,0,11.42,0c7.22,0,14.44,0,21.78,0
				c0.38-2.57,0.62-4.22,0.87-5.87c6.39-0.33,12.78-0.76,19.17-0.97c4.29-0.14,8.26-1.07,11.83-3.5c3.17-0.01,6.33-0.02,9.5-0.02
				c4.47-0.01,8.95-0.02,13.42-0.04c6.03,0.61,11.99,1.04,16.34-4.51c0.42-0.54,1.21-0.79,1.84-1.17
				c12.58-0.75,25.19-1.16,37.72-2.38c7-0.68,14.46,0.52,20.89-3.64c4.42-0.12,8.84-0.23,13.26-0.35c16.95-1.55,34-2.4,50.78-5.04
				c5.73-0.9,11.48-2.16,17.33-2.67c1.24-0.11,2.49-0.13,3.71-0.35c13.11-2.33,26.18-4.85,39.56-5.1c0.74-0.01,1.52-0.06,2.22-0.28
				c1.15-0.36,2.22-0.93,3.36-1.29c2.99-0.95,5.96-2.25,9.03-2.64c4.43-0.56,8.94-0.43,13.42-0.6c4.46-0.03,8.92-0.05,13.38-0.08
				c3.65,0,7.3,0,10.85,0c1.11-2.1,2.02-3.82,2.93-5.53c4.23-0.1,8.46-0.11,12.68-0.32c13.66-0.67,27.32-1.34,40.96-2.2
				c2.39-0.15,5.84-0.54,6.86-2.09c2.17-3.3,5.06-2.73,7.86-2.92c4.96-0.34,9.94-0.45,14.92-0.53c5.55-0.1,10.84-1.12,15.69-3.95
				c2.94-0.12,5.88-0.23,8.83-0.35c3-0.01,5.99-0.01,8.99-0.02c2.97-0.01,5.94-0.01,8.9-0.02c2.84-0.31,7.26,0.37,8.22-1.13
				c2.44-3.85,5.66-3.17,8.94-3.47c2.91-0.27,5.81-0.58,8.71-0.88c14.7-0.77,29.41-1.5,44.1-2.34c1.92-0.11,5.19-0.39,5.47-1.3
				c1.61-5.31,5.83-3.93,9.22-3.96c41.44-0.38,82.89-0.52,124.33-0.97c19.92-0.22,39.83-0.96,59.74-1.5
				c1.47-0.04,3.32,0.11,4.32-0.68c3.74-2.93,8.01-2.4,12.2-2.41c20.72-0.05,41.45-0.02,62.17-0.08c2.72-0.01,5.43-0.36,8.15-0.56
				c2.45,0.06,4.91,0.12,7.36,0.19c0.89,1.74,1.77,3.49,2.72,5.35c2.25,0.36,4.44,0.71,5.92,0.95c1.78,2.08,2.88,4.65,4.53,5.07
				c4.51,1.15,9.24,1.39,13.89,1.98c3.82,0.83,6.42,3.43,8.92,6.17c1.33,2.95,3.55,4.84,6.85,4.41c4.52-0.58,2.82,5.41,6.51,5.72
				c4.58,0.39,9.13,1.11,13.7,1.69c3.43,0.99,6.32,2.77,8.33,5.79c5.93-0.69,7.76,5.32,12.04,7.34c5.41,2.55,10.72,5.36,16.26,7.59
				c4.34,1.75,9.69,1.79,13.29,4.39c3.79,2.73,6.86,1.69,10.35,1.06c1.94-0.35,3.83-1.65,5.7-1.56c16.96,0.81,33.48-3.47,50.29-4.21
				c5.22-0.23,10.82,0.25,15.53-1.51c7.73-2.89,15.59-2.33,23.41-3.09c4.94-0.48,9.88-1.02,14.8-1.75
				C3233.25,1680.55,3236.54,1679.68,3239.86,1678.97z"/>
			<path fill="#C9DAF8" d="M3239.86,3.02c0,219.36,0,438.72,0,658.09c-2.24-0.08-4.49-0.23-6.73-0.23
				c-421.17-0.01-842.33-0.01-1263.5,0.02c-3.47,0-6.95,0.48-10.42,0.73c-3.24-0.14-6.47-0.4-9.71-0.4
				c-644.95-0.02-1289.9-0.02-1934.85-0.01c-2.99,0-5.99,0.18-8.98,0.27c-0.53-0.18-1.06-0.37-1.59-0.55
				c0-85.18,0.03-170.35-0.07-255.53c-0.01-6.68-0.91-13.36-1.4-20.04c0.51-2.07,1.46-4.14,1.47-6.22
				c0.08-50.91,0.08-101.82,0-152.72c0-2.05-0.96-4.11-1.47-6.16C2.61,147.36,2.62,74.45,2.63,1.53c3.5,0,7-0.01,10.49-0.01
				c120.44,0,240.87,0,361.31,0c120.69,0,241.38-0.35,362.06,0.1c120.33,0.45,240.67-1.97,360.99,1.4
				C1811.61,3.02,2525.73,3.02,3239.86,3.02z"/>
			<path fill="#0B5394" d="M3239.86,662.61c0,185.38,0,370.77,0,556.15c-3.25-0.06-6.49-0.16-9.74-0.16
				c-419.07-0.01-838.14-0.01-1257.21,0c-3,0-6,0.07-8.99,0.11c-0.08-0.52-0.15-1.04-0.23-1.56c0.02-68.21,0.04-136.41,0.04-204.62
				c0.01-113.18,0-226.36,0-339.53c0-3.16,0-6.32,0-10.33c4.51,0,7.94,0,11.38,0c418.08,0,836.17,0,1254.25,0
				C3232.86,662.67,3236.36,662.63,3239.86,662.61z"/>
			<path d="M1981.81,1563.72c-4.15-5-8.75-9.2-15.76-9.59c-0.38-0.02-0.66-1.64-0.99-2.51c0.88-0.33,1.76-0.67,3.86-1.46
				c-6.39-2.21-5.1-6.77-5.1-10.78c-0.03-101.67-0.02-203.33-0.03-305c0-3.25-0.1-6.49-0.15-9.74l0.14,0.01
				c4,0.01,7.99,0.03,11.99,0.03c417.87,0,835.73,0,1253.6,0c3.5,0,6.99,0.05,10.49,0.07c0,151.4,0,302.81,0,454.21
				c-3.32,0.7-6.61,1.58-9.96,2.08c-4.91,0.73-9.85,1.27-14.8,1.75c-7.83,0.76-15.68,0.2-23.41,3.09
				c-4.71,1.76-10.32,1.28-15.53,1.51c-16.82,0.74-33.33,5.02-50.29,4.21c-1.87-0.09-3.76,1.21-5.7,1.56
				c-3.49,0.63-6.56,1.67-10.35-1.06c-3.6-2.6-8.95-2.64-13.29-4.39c-5.54-2.23-10.85-5.03-16.26-7.59
				c-4.27-2.02-6.11-8.03-12.04-7.34c-2.02-3.02-4.9-4.81-8.33-5.79c-3.43-1.63-7.13-2.87-10.23-4.98
				c-5.18-3.53-10.14-7.2-16.83-6.84c-2.5-2.74-5.1-5.34-8.92-6.17c-4.16-2.21-9.83-1.86-12.17-7.23c-0.21-0.47-1.33-0.48-1.95-0.85
				c-2.02-1.2-3.93-2.6-6.01-3.68c-1.66-0.86-3.51-1.38-5.27-2.05c0.01-2.57-0.82-4.28-3.82-4.26c-13.9,0.07-27.81,0.11-41.71,0.06
				c-2.89-0.01-4.01,1.41-4.12,4.04c-34.94,0.1-69.87,0.16-104.81,0.3c-29.44,0.12-58.89,0.33-88.33,0.5
				c-9.19-0.09-18.38-0.22-27.57-0.25c-2.45-0.01-5.11-0.1-6.13,2.98c-4.11,0.61-8.21,1.39-12.34,1.77
				c-4.71,0.43-9.47,0.35-14.17,0.8c-2.42,0.23-5.92,0.35-6.95,1.87c-2.54,3.76-5.97,2.9-9.27,3.22c-9.15,0.88-18.31,1.7-27.46,2.55
				c-5.87,0.16-11.73,0.32-17.6,0.48c-2.97,0-5.94-0.01-8.91-0.01c-2.78,0-5.56,0-8.49,0c-0.33,2.31-0.57,3.92-0.8,5.54
				c-2.94,0.12-5.88,0.23-8.83,0.35c-6.47,0.08-13.36-1.21-19.29,0.61c-6.89,2.12-13.64,1.96-20.5,2.49
				c-3.98,0.31-8.04,0.38-11.88,1.33c-2.37,0.58-4.3,3.6-6.58,3.81c-8.83,0.82-17.73,1.68-27.17,0.19c0-3.28,0.02-5.98,0-8.68
				c-0.13-16.22-0.23-32.45-0.44-48.67c-0.03-2.45,0.23-5.63-1.12-7.2c-3.34-3.89-2.82-8.28-3.14-12.67
				c-0.34-4.62,0.61-9.62-3.83-13.1c-0.45-0.35-0.46-1.4-0.51-2.13c-0.33-5.75-0.55-11.07-4.17-16.5
				c-3.24-4.86-2.59-12.09-7.56-16.61c0.28-5.13-2.22-9.12-4.93-13.21c-2.3-3.46-5.74-6.54-5.45-11.31
				c-5.92-4.51-7.76-12.03-12.71-17.26c0.18-7.19,0.18-7.19-4.45-8.9c-2.64-1.79-3.54-5.9-5.42-6.94
				c-4.65-2.57-7.27-6.74-10.86-10.1c-3.17-2.97-7.48-5.14-9.69-8.66c-4.33-6.91-8.61-13.44-16.62-16.52
				c-0.8-0.31-1.48-1.19-1.99-1.96c-2.98-4.42-6.98-7.19-12.23-7.58c-1.05-1.87-1.62-3.95-2.98-5.08c-3.06-2.54-6.26-5.27-9.88-6.72
				c-4.61-1.84-7.12-4.87-8.47-9.34c-0.2-0.66-0.77-1.21-1.02-1.58c-6.45-1.94-13.8-1.06-17.84-7.86c-0.28-0.46-1.37-0.49-2.1-0.63
				c-4.88-0.93-9.77-1.83-14.66-2.73c-0.32-1.79-0.64-3.58-1.04-5.79c-2.97,0-5.54,0-8.11,0c-2.78-0.23-5.57-0.46-8.35-0.7
				c-2.03-1.2-5.02-1.92-5.92-3.7c-2.5-4.91-6.67-4.45-10.85-4.55c-3.48-0.09-6.98,0.02-10.43-0.3c-1.57-0.15-3.77-0.68-4.45-1.8
				c-1.48-2.43-3.53-2.48-5.75-2.5c-4.22-0.03-8.44,0.02-12.66,0.04c-1.45-0.13-2.9-0.26-4.35-0.38c-0.02-2.56-0.81-4.31-3.84-4.3
				c-10.96,0.05-21.92,0.06-32.88,0.02c-3.02-0.01-3.84,1.71-3.86,4.28c-6.24,0.13-12.48,0.14-18.7,0.44
				c-2.18,0.1-4.99,0.21-6.35,1.52c-3.84,3.7-8.46,3.71-13.15,4.1c-1.95,0.16-5.05,0.11-5.59,1.18c-2.2,4.38-6.24,3.48-9.67,4.11
				c-5.38,0.98-10.84,1.54-16.23,2.46c-1.61,0.28-3.93,0.77-4.5,1.89c-1.78,3.49-4.77,3.64-7.97,4.4c-4.19,1-8.22,2.79-12.19,4.53
				c-1.88,0.82-3.33,2.77-5.24,3.37c-4,1.27-8.17,1.98-12.48,2.96c-0.3,2.95-1.19,5.24-4.74,5.51c-1.3,0.1-2.95,1.17-3.67,2.29
				c-3.33,5.17-9.15,7.52-13.35,11.84c-3.79,3.9-9.7,6.26-14.53,9.64c-5.25,3.67-10.21,7.83-13.2,12.69
				c-4.49,7.32-13.56,10.11-16.43,18.47c-6.22,1.69-8.25,7.56-11.85,11.87c-1.03,1.23-2.87,2.34-3.02,3.65
				c-0.74,6.36-5.24,10.71-8.17,15.82c-2.79,4.85-7.82,8.71-9.5,13.79c-1.56,4.73-7.01,7.83-5.61,13.72
				c0.23,0.95-0.84,2.23-1.37,3.32c-0.92,1.88-2.03,3.68-2.79,5.62c-0.72,1.82-0.81,3.92-1.67,5.65
				c-3.62,7.26-7.73,14.33-8.64,22.59c-0.55,4.96-3.22,7.47-8.04,7.96c-2.89-1.11-5.79-2.21-8.68-3.32c-0.24-6.8-0.24-6.8-4.85-7.27
				c-1.83-0.54-3.63-1.17-5.48-1.59C1986.97,1564.62,1984.38,1564.21,1981.81,1563.72z"/>
			<path fill="#FCFCFD" d="M2.63,1.53C2.62,74.45,2.61,147.36,2.6,220.27c-0.09,2.49-0.25,4.97-0.25,7.46
				c-0.01,49.81-0.02,99.62,0,149.43c0,2.74,0.16,5.47,0.25,8.21c0.49,6.68,1.39,13.36,1.4,20.04c0.1,85.18,0.07,170.35,0.07,255.53
				c0.05,0.56,0.11,1.12,0.16,1.67c-0.14,3.23-0.39,6.46-0.39,9.69c0,115.51,0.01,231.02,0.06,346.53
				c0.02,46.15,0.15,92.3,0.23,138.45c-0.42,0.85-1.25,1.72-1.21,2.54c0.3,6.19,1.15,12.37,1.15,18.56
				c0.06,417.2,0.05,834.4,0.05,1251.6c-1.25,0-2.5,0-4.12,0C0,1620.01,0,810.02,0,0.03c0.62,0,1.62,0,2.62,0
				C2.62,0.53,2.63,1.03,2.63,1.53z"/>
			<path fill="#F6F5FD" d="M2.63,1.53c0-0.5,0-1,0-1.51c1076.83,0,2153.66,0,3230.49,0c1.75,0,3.5,0.08,5.25-0.02
				c2.96-0.16,0.88,2.08,1.5,3.02c-714.13,0-1428.25,0-2142.38-0.01c-120.32-3.37-240.66-0.95-360.99-1.4
				c-120.69-0.45-241.37-0.1-362.06-0.1c-120.44,0-240.87,0-361.31,0C9.62,1.52,6.13,1.53,2.63,1.53z"/>
			<path fill="#252831" d="M3239.86,1224.76c-3.5-0.03-6.99-0.07-10.49-0.07c-417.87,0-835.73,0-1253.6,0c-4,0-7.99-0.02-11.99-0.02
				c0.05-1.98,0.09-3.96,0.14-5.94c3-0.04,6-0.11,8.99-0.11c419.07-0.01,838.14-0.01,1257.21,0c3.25,0,6.49,0.11,9.74,0.16
				C3239.86,1220.76,3239.86,1222.76,3239.86,1224.76z"/>
			<path fill="#5381B5" d="M3239.86,662.61c-3.5,0.02-7,0.06-10.5,0.06c-418.08,0-836.17,0-1254.25,0c-3.44,0-6.87,0-11.38,0
				c0,4.01,0,7.17,0,10.33c0,113.18,0.01,226.36,0,339.53c0,68.21-0.03,136.41-0.04,204.62c-1.46,0.07-2.93,0.14-4.39,0.21
				c0.02-1.75,0.07-3.49,0.07-5.24c0-181,0-361.99,0-542.99c0-2.5-0.11-4.99-0.16-7.49c3.47-0.25,6.95-0.73,10.42-0.73
				c421.17-0.03,842.33-0.03,1263.5-0.02c2.24,0,4.49,0.15,6.73,0.23C3239.86,661.61,3239.86,662.11,3239.86,662.61z"/>
			<path fill="#FCFCFD" d="M3238.36,2430c0.5-0.5,1-1,1.5-1.5C3239.36,2429,3238.86,2429.5,3238.36,2430z"/>
			<path fill="#2C609B" d="M1959.21,661.63c0.06,2.5,0.16,4.99,0.16,7.49c0.01,181,0.01,361.99,0,542.99c0,1.75-0.05,3.49-0.07,5.24
				c-1,0-2,0.01-3,0.01c-638.34,0-1276.67,0-1915.01,0c-3.5,0-6.99,0.05-10.49,0.07c-1.1-0.55-2.2-1.11-3.3-1.66
				c0,0,0.16,0.05,0.16,0.05c-2.08-6.35-2.83-13.67-6.6-18.76c-3.77-5.09-1.58-12.23-7.17-16.13c-0.68-0.47-0.19-2.42-0.56-3.58
				c-0.85-2.67-0.27-5.75-3.48-7.76c-1.29-0.81-1.06-4.07-1.49-6.22c-0.53-2.64-0.54-5.63-4.23-6.08
				c-0.08-46.15-0.21-92.3-0.23-138.45C3.85,903.33,3.84,787.82,3.84,672.31c0-3.23,0.26-6.46,0.39-9.69
				c0.48-0.37,0.96-0.75,1.43-1.12c2.99-0.09,5.99-0.27,8.98-0.27c644.95-0.01,1289.9-0.01,1934.85,0.01
				C1952.73,661.23,1955.97,661.49,1959.21,661.63z"/>
			<path fill="#14200F" d="M1878.33,1573.97c-3.4,2.02-7.33,3.12-8.87,7.71c-0.6,1.77-3.47,3.42-5.59,3.89
				c-3.42,0.76-4.6,2.43-3.46,6.05c-4.7,0.09-7.05,2.42-9.72,5.27c-4.25,4.53-9.7,7.93-14.65,11.8c-0.86,0.67-2.56,1.45-2.48,1.96
				c0.69,4.2-2.68,4.72-5.14,6.03c-1.99,1.06-4.95,0.86-4.99,4.33c-0.01,0.51-1.43,1.2-2.3,1.46c-6.29,1.89-10.09,6.76-14.24,11.37
				c-2.52,2.8-7.03,4.42-8.37,7.54c-2.26,5.27-6.34,6.28-10.77,8.12c-2.6,1.08-4.44,4.25-6.33,6.7c-2.08,2.71-6.35,3.08-7.08,7.59
				c-0.23,1.43-4.54,2.08-6.87,3.31c-1.58,0.83-3.82,1.79-4.25,3.16c-1.26,4.08-3.63,6.91-7.02,9.37
				c-6.24,4.53-12.11,9.58-18.41,14.01c-1.63,1.14-4.28,0.98-6.47,1.14c-10.44,0.76-20.88,1.43-31.32,2.13
				c-6.98,0.09-13.96,0.19-20.93,0.28c-3.96,0.01-7.91,0.01-11.87,0.02c-8.29-0.42-8.29-0.42-9.39,5.25
				c-5,0.13-9.99,0.21-14.98,0.41c-5.49,0.22-11.37-0.59-16.35,1.14c-5.4,1.88-10.64,2.06-16.05,2.33
				c-4.99,0.25-9.99,0.3-14.97,0.67c-2.46,0.18-6.05,0.05-7.12,1.52c-3.33,4.59-7.86,3.37-12.11,3.72
				c-8.45,0.69-17.2,0.17-25.27,2.26c-6.4,1.66-12.64,2.02-19.03,2.47c-2.48,0.17-4.96,0.46-7.44,0.7
				c-3.89,0.16-7.78,0.29-11.67,0.49c-2.81,0.15-2.7,2.43-3.04,4.35c-7.13,0.35-14.27,0.69-21.4,1.04
				c-5.02,0.3-10.08,0.39-15.05,1.07c-1.16,0.16-2.06,2.29-3.08,3.52c-7.98,0.11-15.96,0.42-23.94,0.25
				c-5.2-0.11-10.76,1.07-15.08-3.68c-1.08-1.19-3.73-1.12-5.69-1.33c-3.22-0.34-6.48-0.35-9.7-0.68c-1.42-0.15-3.52-0.31-4.05-1.21
				c-2.49-4.24-6.62-3.86-10.48-4.26c-3.71-0.39-8.14,0.59-11.03-1.12c-6.03-3.55-12.4-3.14-18.76-3.83
				c-2.13-0.23-5.25-0.37-6.1-1.7c-2.35-3.69-5.75-3.52-9.16-3.83c-3.97-0.36-8.39,0.41-11.82-1.12c-6-2.66-12.13-2.32-18.28-2.89
				c-1.94-0.18-4.3,0.05-5.73-0.96c-5.49-3.88-11.62-4.67-18.05-5.13c-9.42-0.68-19.23-0.52-28.1-3.24
				c-8.15-2.5-16.01-2.41-24.11-2.51c-9.21-1.54-18.78-2.01-27.5-4.98c-6.28-2.14-12.7-1.75-18.69-3.64
				c-8.77-2.77-17.7-4-26.73-4.86c-3.39-0.32-3.84-5.14-8.03-4.24c-2.83,0.61-5.95-0.16-8.94-0.32c-0.35-1.64-0.7-3.28-1.25-5.88
				c-6.13,0-12.22,0-18.31,0c-3.96,0.02-7.92,0.04-11.88,0.06c-3.13,0-6.26,0-9.37,0c-0.6,2.53-0.99,4.18-1.39,5.83
				c-3.85,0.24-8.02-0.46-10.41,3.87c-0.29,0.52-1.28,0.77-1.99,0.92c-5.45,1.15-10.73,2.61-16.05,4.44
				c-8.33,2.86-16.86,5.29-25.15,8.42c-0.23,0.09-0.49,0.09-0.73,0.13c-11.27,2.12-22.53,4.25-33.8,6.36
				c-0.73,0.14-1.77-0.14-2.17,0.27c-5.04,5.09-12.27,5.2-18.27,8.07c-1.74,0.83-3.8,1.07-5.73,1.46c-3.01,0.6-6.59-0.16-7.98,3.94
				c-0.24,0.69-1.58,1.2-2.5,1.45c-7.01,1.87-14.05,3.61-21.05,5.49c-2.21,0.59-4.94,0.2-5.66,3.75c-0.19,0.96-3.32,1.54-5.18,1.9
				c-3.45,0.66-7.49-0.23-9.1,4.45c-0.19,0.55-2.29,0.44-3.5,0.63c-8.95-1.8-16.51,4.53-25.19,4.36c-0.4-0.01-1.01,0.41-1.17,0.78
				c-1.43,3.31-4.55,2.32-7.08,2.89c-2.37,0.53-4.76,1.04-7.09,1.72c-2.02,0.59-3.92,1.64-5.96,2.06c-2.39,0.49-4.87,0.53-7.13,0.74
				c-0.83,1.89-1.49,3.42-1.96,4.5c-5.92,0.93-11.3,1.88-16.7,2.59c-5.33,0.7-9.86,1.9-14.63,5.49c-4.88,3.67-12.34,3.98-18.73,5.53
				c-3.2,0.78-6.36,1.25-6.88,5.33c-8.96-0.05-17.92-0.09-26.88-0.14c-0.13-2.53-0.98-4.31-3.97-4.21
				c-1.99,0.07-3.98-0.07-5.97-0.11c-2.18-0.28-4.36-0.75-6.55-0.81c-8.71-0.26-17.43-0.36-26.14-0.59
				c-2.22-0.06-4.46-0.26-6.65-0.65c-5.56-0.99-11.05-2.72-16.64-3.09c-10.18-0.67-20.4-0.54-30.61-0.8
				c-1.98-0.05-4.82,0.4-5.78-0.69c-4.59-5.2-10.79-4.35-16.4-4.58c-27.85-1.14-55.72-1.86-83.58-2.73
				c-0.37-1.62-0.73-3.24-1.21-5.38c-5.85,0-11.46,0-17.07,0c-4.52,0.03-9.05,0.05-13.57,0.08c-7.2-0.17-14.4-0.33-21.6-0.51
				c-2.73-0.07-5.64,0.42-8.16-0.35c-11.12-3.4-22.46-2.95-33.82-2.58c-14.79,0.47-29.32,4.23-44.21,3.4
				c-4.45,0.02-8.89,0.04-13.34,0.07c-4.5-0.02-9-0.04-13.51-0.05c-4.18,0-8.37,0-12.83,0c-0.34,2.26-0.59,3.92-0.84,5.59
				c-1.46,0.07-2.92,0.13-4.38,0.2c-2.48-0.11-4.96-0.38-7.43-0.31c-24.89,0.71-49.78,1.42-74.66,2.27
				c-6.95,0.24-13.89,0.86-20.82,1.46c-1.4,0.12-3.53,0.5-3.98,1.42c-1.66,3.35-4.54,2.58-7.13,2.64
				c-12.2,0.29-24.41,0.41-36.61,0.73c-2.7,0.07-5.75,0.06-7.99,1.28c-4.64,2.52-9.49,2.49-14.43,2.57
				c-8.97,0.16-17.93,0.24-26.9,0.49c-2.16,0.06-4.31,0.66-6.46,1.01c-3.11,0.09-6.22,0.32-9.32,0.23
				c-2.99-0.08-4.26,1.52-4.82,4.11c-7.22,0-14.44,0-21.27,0c-2.22-3.38-3.63-7.25-6.39-9.25c-3.41-2.48-2.47-8.5-7.87-8.83
				c-1.89-7.32-8.77-10.64-12.86-16.17c-2.4-3.24-3.01-8.19-5.9-10.59c-4.39-3.64-3.86-10.54-9.65-12.87
				c-1.2-0.48-2.99-1.92-2.92-2.78c0.67-8.18-7.58-9.9-11.18-14.81c-4.57-6.22-9.98-12.1-14.67-18.38
				c-4.44-5.96-8.32-12.33-13.64-17.6c-0.58-3.61-1.43-6.99-6.13-6.99c-0.14-1.43-0.29-2.86-0.43-4.29
				c-0.83-1.89-1.15-4.39-2.57-5.55c-5.58-4.57-6.89-10.5-6.46-17.19c0.05-0.74,0.15-1.48,0.15-2.22
				c0.02-16.83,0.03-33.66,0.04-50.5c0.09-3.94,0.19-7.88,0.28-11.83c1.93-0.44,4.03-0.59,4.02-3.41
				c-0.06-10.94-0.07-21.87-0.1-32.81c0.07-14.48,0.15-28.95,0.22-43.43c0.1-6.46,0.21-12.91,0.31-19.36
				c0.81-1.13,2.12-2.17,2.35-3.41c2.55-13.74,2.25-27.63,1.73-41.51c0.12-13.47,0.24-26.94,0.36-40.41
				c-0.15-1.47,0.24-3.7-0.55-4.26c-2.87-2.02-4.45-4.39-3.78-7.89c0.74-3.84-4.2-4.99-4.07-7.87c0.32-6.99-4.35-12.41-5.1-18.97
				c-0.3-2.66-2.36-2.8-4.37-2.98c-0.08-0.95-0.16-1.89-0.23-2.84c0.09-0.55,0.18-1.1,0.26-1.65c-0.44-2.63,0.04-6.49-1.51-7.64
				c-2.96-2.21-2.99-4.74-3.16-7.62c-0.16-2.83-2.13-2.89-4.2-2.84c-0.48-1.54-0.95-3.09-1.43-4.63c-0.14-2.71,0.8-5.84-2.75-7.26
				c-0.26-1.44-0.53-2.88-0.79-4.31c0.89-5.31,0.11-9.88-5.49-12.3c-2.17-5.41-2.32-11.76-4.74-16.61
				c-4.8-9.63-8.32-19.64-12.06-29.62c0.35-1.89,0.69-3.79,1.14-6.26c3.55,0,6.75,0,9.96,0c634.31,0,1268.63,0,1902.94,0.01
				c3.25,0,6.49,0.13,9.74,0.19c0.02,104.37,0.03,208.73,0.04,313.1c0,1.25-0.1,2.5-0.01,3.74c0.23,3.2-2,3.56-4.32,3.85
				c-4.87-1.99-9.95-3.13-13.49-7.99c-1.7-2.32-6-2.74-9.12-4.02c-0.24-1.83-0.48-3.66-0.7-5.36c-7.51-0.55-7.51-0.55-8.13,5.6
				c-3.61,1.52-4.66,5.57-7.6,7.72c-3.89,2.85-7.85,5.63-11.85,8.32c-3.88,2.62-6.14,7.52-11.46,8.11c-0.02,4.2-3.66,5.55-6.21,7.68
				c-0.85,0.71-2.29,0.7-3.45,1.03C1878.3,1567.29,1878.3,1567.29,1878.33,1573.97z"/>
			<path fill="#656666" d="M2008.54,1577.38c4.82-0.49,7.5-3.01,8.04-7.96c0.91-8.26,5.02-15.33,8.64-22.59
				c0.86-1.73,0.95-3.83,1.67-5.65c0.76-1.94,1.87-3.74,2.79-5.62c0.53-1.09,1.6-2.37,1.37-3.32c-1.4-5.88,4.05-8.99,5.61-13.72
				c1.68-5.08,6.71-8.94,9.5-13.79c2.94-5.11,7.43-9.46,8.17-15.82c0.15-1.32,2-2.42,3.02-3.65c3.59-4.31,5.62-10.18,11.85-11.87
				c2.87-8.37,11.94-11.16,16.43-18.47c2.98-4.86,7.94-9.01,13.2-12.69c4.84-3.38,10.74-5.75,14.53-9.64
				c4.2-4.32,10.02-6.67,13.35-11.84c0.72-1.12,2.37-2.19,3.67-2.29c3.54-0.27,4.44-2.56,4.74-5.51c4.3-0.99,8.48-1.7,12.48-2.96
				c1.91-0.6,3.36-2.55,5.24-3.37c3.97-1.73,8-3.53,12.19-4.53c3.21-0.76,6.19-0.91,7.97-4.4c0.57-1.12,2.89-1.62,4.5-1.89
				c5.39-0.93,10.85-1.48,16.23-2.46c3.44-0.63,7.47,0.27,9.67-4.11c0.54-1.07,3.64-1.01,5.59-1.18c4.69-0.39,9.31-0.4,13.15-4.1
				c1.36-1.31,4.17-1.42,6.35-1.52c6.23-0.3,12.47-0.31,18.7-0.44c13.52,0,27.05,0,40.57,0c1.45,0.13,2.9,0.26,4.36,0.38
				c1.01,1.47,1.71,3.66,3.1,4.25c2.41,1.02,5.23,1.36,7.89,1.44c6.39,0.19,12.78,0.06,19,0.06c1.22,2.34,2.09,4.02,2.9,5.58
				c5.95,0.51,11.56,0.99,17.17,1.46c2.78,0.23,5.57,0.46,8.35,0.7c0.27,1.66,0.54,3.32,0.81,4.93c1.03,0.32,1.71,0.69,2.42,0.73
				c1.97,0.12,3.95,0.1,5.93,0.13c4.89,0.91,9.77,1.81,14.66,2.73c0.73,0.14,1.82,0.16,2.1,0.63c4.04,6.79,11.39,5.91,17.84,7.86
				c0.25,0.37,0.82,0.92,1.02,1.58c1.35,4.47,3.86,7.49,8.47,9.34c3.62,1.45,6.82,4.17,9.88,6.72c1.36,1.13,1.93,3.21,2.98,5.08
				c5.26,0.39,9.25,3.15,12.23,7.58c0.51,0.76,1.19,1.65,1.99,1.96c8.01,3.08,12.29,9.61,16.62,16.52c2.21,3.52,6.51,5.69,9.69,8.66
				c3.59,3.36,6.2,7.54,10.86,10.1c1.88,1.04,2.78,5.15,5.42,6.94c0.05,1.46,0.21,2.93,0.11,4.38c-0.21,3.16,1.43,4.41,4.34,4.52
				c4.95,5.23,6.79,12.74,12.71,17.26c-0.29,4.77,3.15,7.85,5.45,11.31c2.72,4.09,5.22,8.08,4.93,13.21
				c4.97,4.52,4.32,11.75,7.56,16.61c3.62,5.43,3.84,10.75,4.17,16.5c0.04,0.73,0.05,1.77,0.51,2.13c4.44,3.47,3.49,8.48,3.83,13.1
				c0.32,4.39-0.2,8.78,3.14,12.67c1.35,1.57,1.09,4.75,1.12,7.2c0.22,16.22,0.32,32.45,0.44,48.67c0.02,2.7,0,5.39,0,8.68
				c9.44,1.49,18.34,0.63,27.17-0.19c2.29-0.21,4.21-3.22,6.58-3.81c3.84-0.94,7.9-1.02,11.88-1.33c6.86-0.53,13.6-0.37,20.5-2.49
				c5.93-1.82,12.82-0.53,19.29-0.61c-4.85,2.83-10.14,3.85-15.69,3.95c-4.98,0.09-9.96,0.19-14.92,0.53
				c-2.8,0.19-5.69-0.38-7.86,2.92c-1.02,1.55-4.46,1.94-6.86,2.09c-13.65,0.87-27.31,1.53-40.96,2.2
				c-4.22,0.21-8.46,0.22-12.68,0.32c-4.48-0.01-8.96-0.01-13.44-0.02c-4.19,0-8.39,0-12.85,0c-0.35,2.29-0.6,3.96-0.86,5.63
				c-4.48,0.17-8.99,0.04-13.42,0.6c-3.07,0.39-6.03,1.69-9.03,2.64c-1.14,0.36-2.22,0.94-3.36,1.29c-0.7,0.22-1.47,0.27-2.22,0.28
				c-13.37,0.25-26.45,2.77-39.56,5.1c-1.22,0.22-2.47,0.24-3.71,0.35c-5.85,0.51-11.6,1.77-17.33,2.67
				c-16.78,2.64-33.83,3.49-50.78,5.04c1.82-4.35,5.85-4.05,9.43-4.19c6.73-0.27,13.47-0.06,20.2-0.3c2.13-0.07,4.24-0.89,6.35-1.41
				c3.79-0.94,7.52-2.39,11.36-2.76c5.19-0.51,10.47-0.02,15.7-0.3c5.91-0.31,8.67-3.49,8.54-9.24c0.16-4.35,0.31-8.7,0.47-13.06
				c3.44-0.34,4.46-2.55,4.45-5.65c-0.04-9.87,0.04-19.74-0.09-29.61c-0.04-3.02-0.63-6.01-4.42-6.71c-0.47-2.88,0.05-6.9-1.64-8.37
				c-2.83-2.46-3.14-5.15-2.66-7.89c1.2-6.91-5.47-11.12-5.51-17.48c-4.42-1.86-3.07-6.19-4.09-9.52c0.57-6.71,0.57-6.71-3.96-7.81
				c-1.42-3.4-5.46-5.42-5.1-9.81c0.04-0.5-0.85-1.09-1.31-1.63c-3.83-4.55-8.63-8.62-11.16-13.8c-1.74-3.55-3.98-5.84-6.98-6.64
				c-3.99-1.06-5.52-3.79-7.21-6.78c0.22-2.72-1.1-4.1-3.73-4.64c-1.61-0.33-3.79-0.59-4.57-1.69c-3.17-4.5-7.96-5.37-12.94-6.54
				c-0.65-1.41-1.02-3.94-2.12-4.31c-4.44-1.49-6.9-7.33-12.8-5.7c-1.14,0.31-2.76-0.72-4.03-1.37c-4.04-2.08-8.57-3.4-11.49-7.26
				c-8.41-0.06-15.45-6.83-24.37-4.89c-1.33,0.29-4.13-1.25-4.51-2.48c-1.02-3.33-3.32-3.28-5.83-3.29
				c-9.22-0.02-18.45,0.31-27.64-0.11c-4.72-0.22-7.39,1.47-8.38,5.44c-9.35,1.3-18.16,2.45-26.95,3.84
				c-1.21,0.19-2.97,1.35-3.21,2.36c-0.69,2.85-2.45,3.48-4.91,3.44c-3.06-0.05-5.42,0.86-5.86,4.34
				c-6.21-0.54-10.17,3.93-14.17,7.26c-5.16,4.3-11.1,7.48-16.5,11.26c-6.24,4.37-9.93,11.32-16.82,14.68
				c-0.53,0.26-0.41,1.85-0.59,2.83c-4.84,1.2-7.76,4.4-8.78,9.14c-0.43,2-0.51,3.72-2.77,4.75c-1.17,0.53-2.45,2.09-2.61,3.33
				c-0.67,4.99-4.24,7.5-7.52,9.54c-0.62,3.21-0.24,7.18-1.8,8.21c-4.09,2.69-3.03,6.3-3.42,9.81c-0.21,1.9-0.17,4.91-1.23,5.44
				c-3.95,1.96-3.07,5.22-3.2,8.33c-4.59,1.29-5.47,3.06-4.5,9.02c-0.13,2.94-0.25,5.87-0.38,8.81c-3.85,0.12-4.11,2.73-4.11,5.71
				c0.01,8.73-0.09,17.46-0.15,26.19c-8.17-1.3-10.04-8.74-13.57-14.37c-1.07-1.71-2.34-2.6-3.58-3.85
				c-4.85-4.89-12.18-5.67-16.65-9.6c-4.72-4.15-10.13-4.12-15.2-6.92c-0.39-1.56-0.85-3.41-1.21-4.88
				c-4.61-1.51-8.87-2.57-12.85-4.3c-3.49-1.52-4.52-6-8.87-7.2c-4.6-1.27-8.79-4.02-13.15-6.14c-0.66-0.32-1.59-0.51-1.89-1.05
				c-3.53-6.36-9.67-7.65-16.36-8.14C2008.72,1580.78,2008.63,1579.08,2008.54,1577.38z"/>
			<path fill="#666666" d="M2328.4,1691.1c-6.43,4.16-13.89,2.96-20.89,3.64c-12.53,1.22-25.14,1.63-37.72,2.38
				c-5.95,0.04-11.9,0.07-17.84,0.11c-4.26,0-8.51,0-12.91,0c-0.35,2.36-0.59,3.99-0.84,5.62c-3.17,0.01-6.33,0.02-9.5,0.02
				c-4.03,0.58-8.08,1.43-9.09-4.49c-0.11-0.67-2.51-0.95-3.85-1.41c-2.81-2.27-5.58-4.59-8.43-6.81c-1.66-1.29-3.43-2.43-5.15-3.64
				c-1.32-4.23-5.9-7.08-5.22-12.18c0.02-0.18-0.21-0.54-0.39-0.59c-4.24-1.27-2.86-5.12-3.66-7.95c0.09-2.42,0.2-4.83,0.26-7.25
				c0.07-2.97-1.87-3.6-4.3-3.61c-0.17-4.83-0.33-9.66-0.5-14.49c1.2-8.14-1.43-16.98,4.54-24.3c0.65-0.8,0.19-2.43,0.44-3.64
				c0.24-1.17,0.45-3,1.18-3.29c2.93-1.17,3.03-3.44,3.43-6c0.21-1.39,1.58-2.72,2.66-3.85c2.88-3.03,6.72-5.49,8.6-9.01
				c1.84-3.45,4.49-5.51,7.5-6.68c3.42-1.33,3.67-3.52,3.7-6.32c4.09-1.43,8.18-2.85,12.88-4.49c0.38-1.49,0.9-3.54,1.46-5.75
				c10.41-1.22,20.45-2.4,30.48-3.57c10.47-1.27,19.99,4.75,30.4,3.14c0.82,2.79,1.42,4.84,2.06,6.99c5.07,0.2,9.91,1.23,12.15,5.69
				c1.12,2.22,2.61,3.2,4.22,4.61c2.08,1.81,4.4,3.09,5.9,6.08c1.26,2.52,3.32,6.62,7.68,6.74c2.34,3.6,4.58,7.25,5.16,11.63
				c0.08,3.26-1.53,7.39,4.03,7.83c0.14,1.9,0.28,3.8,0.42,5.69c0,1.96-0.01,3.93-0.01,5.89c-0.01,2.63,1.81,3.18,3.91,3.42
				c0.21,4.88,0.43,9.75,0.64,14.63c0.06,4.99-0.61,9.49-3.88,13.84c-1.6,2.13-0.11,6.34-0.94,9.36c-0.83,3.02-2.85,5.7-4.27,8.57
				c-0.62,1.26-0.78,2.8-1.58,3.89c-2.1,2.84-4.45,5.5-6.95,8.54C2326.04,1690.53,2327.22,1690.82,2328.4,1691.1z"/>
			<path fill="#334D56" d="M1959.26,1224.82c-3.25-0.07-6.49-0.19-9.74-0.19c-634.31-0.01-1268.63-0.01-1902.94-0.01
				c-3.2,0-6.41,0-9.96,0c-0.45,2.47-0.8,4.37-1.14,6.26c-4.78-3.36-4.87-8.35-4.67-13.44c3.5-0.02,6.99-0.07,10.49-0.07
				c638.34,0,1276.67,0,1915.01,0c1,0,2-0.01,3-0.01c1.46-0.07,2.93-0.14,4.39-0.21c0.07,0.52,0.15,1.04,0.22,1.56
				c-0.05,1.98-0.09,3.96-0.14,5.94c0,0-0.14-0.01-0.14-0.01C1962.18,1224.7,1960.72,1224.76,1959.26,1224.82z"/>
			<path fill="#030303" d="M2192.9,1665.79c0.8,2.84-0.58,6.68,3.66,7.95c0.18,0.05,0.41,0.41,0.39,0.59
				c-0.68,5.1,3.9,7.95,5.22,12.18c-0.56,2.74-0.2,6.5-1.87,7.99c-2.97,2.63-2.63,5.39-2.54,8.47c-3.66,1.06-7.27,2.7-11,3.06
				c-6.65,0.64-13.71-0.67-18.49,6.37c-3.72-4.31-5.62-10.06-12.08-9.65c-3.02-6.5-9.13-10.21-13.97-14.97
				c-6.38-6.28-11.96-13.02-16.54-20.65c0.37-3.55-2.13-3.17-4.35-3.16c-0.12-1.34-0.24-2.67-0.36-4.01
				c-5.06-5.98-4.39-13.19-4.4-20.27c-0.01-7.46-0.11-14.91-0.17-22.37c0.13-2.94,0.25-5.87,0.38-8.81c3-0.09,6-0.18,8.99-0.27
				c1.44,0.75,4.01,1.34,4.13,2.26c0.49,3.57,3.09,4.25,5.66,5c2.84,0.83,5.82,1.23,8.65,2.11c1.48,0.46,2.78,1.53,4.14,2.37
				c1.41,0.87,2.68,2.14,4.21,2.62c4.01,1.25,8.12,2.17,12.78,3.38c0.54,1.17,1.33,2.9,1.9,4.13c2.9,0.85,6.36,0.84,7.3,2.38
				c1.68,2.75,3.85,2.57,6.19,3.21c1.41,0.38,2.47,1.91,3.8,2.76c1.2,0.77,2.54,1.33,3.82,1.98c0.17,4.83,0.33,9.66,0.5,14.49
				c-0.02,2.23,0.05,4.45-0.06,6.67C2188.65,1664.54,2190.46,1665.44,2192.9,1665.79z"/>
			<path fill="#424242" d="M2328.4,1691.1c-1.18-0.29-2.36-0.58-4.23-1.03c2.5-3.04,4.85-5.7,6.95-8.54
				c0.81-1.09,0.97-2.63,1.58-3.89c1.42-2.87,3.44-5.55,4.27-8.57c0.83-3.02-0.66-7.23,0.94-9.36c3.28-4.35,3.95-8.85,3.88-13.84
				c5.54,1.25,11.08,2.5,17.46,3.94c-0.3,4.19,2.81,4.65,6.54,5.46c3.96,0.86,8.85,2.36,11.03,5.29c3.53,4.75,8.37,5.16,12.91,5.98
				c3.93,0.71,6.52,1.7,6.79,4.56c4.21,2.16,7.48,3.84,10.71,5.5c1.79-1.22,3.89-2.64,5.99-4.06c0.13,5.75-2.63,8.92-8.54,9.24
				c-5.23,0.28-10.51-0.21-15.7,0.3c-3.84,0.38-7.57,1.82-11.36,2.76c-2.11,0.52-4.22,1.34-6.35,1.41
				c-6.73,0.23-13.47,0.03-20.2,0.3c-3.58,0.14-7.61-0.16-9.43,4.19C2337.24,1690.87,2332.82,1690.99,2328.4,1691.1z"/>
			<path fill="#343D3A" d="M1959.26,1224.82c1.46-0.06,2.92-0.12,4.38-0.18c0.05,3.25,0.15,6.49,0.15,9.74
				c0.01,101.67,0,203.33,0.03,305c0,4.01-1.29,8.57,5.1,10.78c-2.1,0.8-2.98,1.13-3.86,1.46c-3.36-2.03-6.72-4.07-10.08-6.1
				c2.33-0.29,4.55-0.65,4.32-3.85c-0.09-1.24,0.01-2.5,0.01-3.74C1959.29,1433.55,1959.27,1329.18,1959.26,1224.82z"/>
			<path fill="#798E8E" d="M2755.73,1635.87c29.44-0.17,58.89-0.38,88.33-0.5c34.94-0.14,69.87-0.2,104.81-0.3
				c13.55,0.14,27.09,0.28,40.64,0.42c-2.72,0.19-5.43,0.55-8.15,0.56c-20.72,0.06-41.45,0.02-62.17,0.08
				c-4.19,0.01-8.46-0.51-12.2,2.41c-1.01,0.79-2.86,0.64-4.32,0.68c-19.91,0.54-39.82,1.28-59.74,1.5
				c-41.44,0.45-82.89,0.59-124.33,0.97c-3.4,0.03-7.62-1.35-9.22,3.96c-0.28,0.92-3.55,1.19-5.47,1.3
				c-14.7,0.84-29.4,1.57-44.1,2.34c-2.65-0.16-5.31-0.32-7.96-0.48c9.15-0.84,18.31-1.66,27.46-2.55c3.3-0.32,6.73,0.54,9.27-3.22
				c1.03-1.52,4.53-1.64,6.95-1.87c4.71-0.45,9.46-0.37,14.17-0.8c4.13-0.38,8.23-1.16,12.33-1.81c0.53,0.42,1.06,1.27,1.6,1.27
				c9.61,0.05,19.22,0,28.84-0.02C2755.16,1639.82,2755.62,1638,2755.73,1635.87z"/>
			<path fill="#8C9E97" d="M1250.14,1690.91c8.1,0.1,15.95,0.01,24.11,2.51c8.87,2.72,18.67,2.56,28.1,3.24
				c6.44,0.47,12.57,1.25,18.05,5.13c1.43,1.01,3.78,0.78,5.73,0.96c6.14,0.56,12.28,0.22,18.28,2.89
				c3.43,1.52,7.85,0.75,11.82,1.12c3.41,0.31,6.81,0.14,9.16,3.83c0.85,1.34,3.97,1.47,6.1,1.7c6.36,0.69,12.73,0.28,18.76,3.83
				c2.89,1.7,7.32,0.73,11.03,1.12c3.86,0.4,7.99,0.03,10.48,4.26c0.53,0.9,2.64,1.06,4.05,1.21c3.22,0.33,6.48,0.34,9.7,0.68
				c1.96,0.21,4.6,0.14,5.69,1.33c4.32,4.75,9.88,3.57,15.08,3.68c7.97,0.17,15.96-0.14,23.94-0.25c1.69,0.16,3.38,0.31,5.08,0.47
				c-5.11,0.84-10.18,1.88-15.22,3c-7.2,1.59-14.98,2.82-22.44-1.62c-3.09-1.84-7.8-0.85-11.75-1.36c-3.49-0.44-7.59,0.85-9.84-3.59
				c-0.41-0.81-2.71-0.81-4.16-0.91c-4.23-0.27-8.49-0.25-12.71-0.67c-1.55-0.15-4.08-0.96-4.32-1.93
				c-0.96-3.87-3.82-3.33-6.45-3.47c-3.49-0.19-6.98-0.26-10.48-0.42c-1.24-0.06-3,0.23-3.64-0.46c-4.95-5.3-11.45-3.23-17.35-3.94
				c-3.33-0.4-7.23,0.57-8.26-4.34c-0.11-0.54-1.6-0.88-2.49-1.13c-0.7-0.2-1.49-0.12-2.23-0.17c-7.11-0.49-14.24,0.24-21.08-3.35
				c-3.19-1.68-7.69-0.77-11.58-1.21c-3.24-0.37-7.02,0.84-8.93-3.66c-0.49-1.14-3.47-1.5-5.36-1.72
				c-6.43-0.76-12.89-1.81-19.34-1.78C1268.1,1695.92,1259.03,1694.11,1250.14,1690.91z"/>
			<path fill="#759088" d="M607.09,1745.99c27.86,0.87,55.73,1.59,83.58,2.73c5.61,0.23,11.81-0.62,16.4,4.58
				c0.96,1.09,3.8,0.64,5.78,0.69c10.2,0.26,20.43,0.13,30.61,0.8c5.59,0.37,11.08,2.09,16.64,3.09c2.19,0.39,4.43,0.59,6.65,0.65
				c8.71,0.24,17.43,0.33,26.14,0.59c2.19,0.06,4.37,0.53,6.56,0.82c-3.72-0.65-3.62,1.85-3.55,4.32c-4.45-0.03-8.9-0.05-13.36-0.08
				c-0.19-1.98-0.36-3.94-3.09-3.94c-3.6,0-7.2-0.03-10.8-0.05c-12.47-0.3-24.94-0.57-37.4-0.94c-2.47-0.07-5.29,0.11-7.3-1
				c-5.57-3.07-11.48-2.69-17.41-2.82c-10.22-0.24-20.45-0.48-30.67-0.82c-3.7-0.12-7.34-0.3-10.06-3.69
				c-0.84-1.05-3.07-1.25-4.7-1.35c-3.98-0.23-7.99-0.02-11.97-0.26c-14.65-0.87-29.3-1.85-43.94-2.79
				C605.83,1746.35,606.46,1746.17,607.09,1745.99z"/>
			<path fill="#69877E" d="M216.14,1760.02c2.15-0.35,4.3-0.95,6.46-1.01c8.96-0.25,17.93-0.33,26.9-0.49
				c4.94-0.09,9.79-0.05,14.43-2.57c2.24-1.22,5.29-1.21,7.99-1.28c12.2-0.33,24.41-0.44,36.61-0.73c2.58-0.06,5.47,0.7,7.13-2.64
				c0.46-0.92,2.58-1.3,3.98-1.42c6.93-0.59,13.87-1.22,20.82-1.46c24.88-0.85,49.77-1.56,74.66-2.27c2.47-0.07,4.96,0.2,7.43,0.31
				c-18,2.71-36.16,2.73-54.3,3.01c-4.07,0.06-8.01-0.33-11.55,3.18c-1.75,1.73-5.57,1.76-8.48,1.86
				c-14.67,0.52-29.34,0.81-44.02,1.18c-10.49-1.64-20.2,2.71-30.31,3.93c-8.88,0.19-17.77,0.39-26.65,0.58
				c-4.83,0.02-9.67,0.11-14.5,0.02c-2.9-0.05-3.79,1.54-3.83,4.06c-1.47-0.04-2.93-0.09-4.4-0.13c0.17-2.92-1.07-4.46-4.14-4.28
				C218.97,1759.95,217.55,1759.97,216.14,1760.02z"/>
			<path fill="#8C9E97" d="M1488.34,1723.56c7.13-0.35,14.27-0.69,21.4-1.04c2.49-0.02,5.02-0.31,7.46,0.01
				c4,0.52,5.76-1.86,7.26-4.85c2.48-0.24,4.96-0.53,7.44-0.7c6.39-0.45,12.63-0.81,19.03-2.47c8.07-2.09,16.82-1.57,25.27-2.26
				c4.25-0.35,8.78,0.88,12.11-3.72c1.07-1.47,4.65-1.34,7.12-1.52c4.98-0.37,9.98-0.42,14.97-0.67c5.41-0.27,10.65-0.45,16.05-2.33
				c4.98-1.73,10.86-0.92,16.35-1.14c4.99-0.2,9.99-0.28,14.98-0.41c0.61,0.19,1.21,0.38,1.82,0.57
				c-13.46,3.71-27.2,4.94-41.13,4.66c-1.37-0.03-3.44,0.26-4.01,1.15c-2.59,4.07-6.62,4.02-10.55,4.18
				c-7.49,0.3-14.99,0.35-22.48,0.63c-3.08,0.12-6.33-0.67-8.72,2.77c-0.78,1.13-3.69,1-5.64,1.07c-7.99,0.3-15.99,0.42-23.98,0.67
				c-2.4,0.07-4.87-0.33-5.94,3.11c-0.35,1.12-3.19,1.98-4.93,2.06c-9.98,0.45-19.98,0.63-29.97,0.91c-1.9-0.02-3.8,0.01-5.7-0.07
				c-2.87-0.12-3.68,1.58-3.69,4.04c-2.96,0.04-5.92,0.09-8.88,0.13C1483.64,1725.1,1485.84,1724.2,1488.34,1723.56z"/>
			<path fill="#8C9E97" d="M836.25,1764.4c0.52-4.08,3.68-4.55,6.88-5.33c6.39-1.55,13.85-1.86,18.73-5.53
				c4.78-3.59,9.31-4.78,14.63-5.49c5.4-0.71,10.78-1.66,16.7-2.59c0.47-1.08,1.13-2.6,1.96-4.5c2.26-0.22,4.74-0.25,7.13-0.74
				c2.04-0.42,3.95-1.47,5.96-2.06c2.33-0.68,4.72-1.19,7.09-1.72c2.52-0.56,5.64,0.43,7.08-2.89c0.16-0.37,0.78-0.79,1.17-0.78
				c8.68,0.17,16.24-6.16,25.19-4.36c-4.41,2.74-8.9,5.08-14.39,4.79c-1.22-0.06-2.52,1.04-3.77,1.63
				c-1.68,0.79-3.27,1.93-5.04,2.34c-6.4,1.49-12.86,2.73-19.29,4.07c-0.48,0.1-1.16,0.15-1.39,0.48c-5.68,8.15-15.11,5-22.66,7.48
				c-2.43,0.8-5.43-0.23-6.59,3.47c-0.35,1.12-2.69,1.9-4.25,2.31c-7.07,1.82-14.69,2.43-21.14,5.5
				C845.59,1762.71,840.59,1762.1,836.25,1764.4z"/>
			<path fill="#929790" d="M80.26,1566.34c-0.01,16.83-0.02,33.66-0.04,50.5c0,0.74-0.1,1.48-0.15,2.22
				c-0.44,6.7,0.87,12.62,6.46,17.19c1.42,1.16,1.74,3.67,2.57,5.55c-1.53-0.55-4.09-0.78-4.39-1.72c-0.8-2.55-2.57-3.82-4.3-5.52
				c-4.03-3.96-5.39-9.16-5.21-14.73c0.52-16.19,1.13-32.38,1.54-48.58C76.8,1568.54,77.79,1567.05,80.26,1566.34z"/>
			<path fill="#BCC2C2" d="M467.44,1740.65c14.89,0.84,29.42-2.92,44.21-3.4c11.36-0.36,22.7-0.81,33.82,2.58
				c2.52,0.77,5.43,0.28,8.16,0.35c7.2,0.18,14.4,0.34,21.6,0.51c0.13,1.82,0.26,3.64,0.39,5.46c-2.98,0.05-5.97,0.19-8.95,0.12
				c-1.2-0.03-3.11-0.13-3.45-0.82c-2.52-5.09-7.09-3.61-11.09-3.71c-15.68-0.39-31.36-0.87-47.04-0.95
				c-9.2-0.04-18.4,0.57-27.6,1.02c-1.66,0.08-4.28,0.27-4.77,1.26c-2.32,4.62-6.28,3.05-9.81,3.21
				C462.11,1742.56,465.47,1742.17,467.44,1740.65z"/>
			<path fill="#505757" d="M2156.2,1702.75c6.47-0.41,8.36,5.34,12.08,9.65c4.78-7.04,11.84-5.73,18.49-6.37
				c3.73-0.36,7.34-2,11-3.06c0.32,2.61,1.55,3.27,3.95,2.05c1.63-0.82,3.4-1.35,5.11-2.01c0.64,0.93,1.27,1.86,1.91,2.79
				c0.86-0.96,1.72-1.93,2.58-2.89c4.65,0.38,4.57-2.76,4.44-5.95c1.34,0.46,3.74,0.74,3.85,1.41c1.01,5.91,5.06,5.07,9.09,4.49
				c-3.57,2.43-7.55,3.35-11.84,3.5c-6.39,0.21-12.78,0.64-19.17,0.97c-4.07-0.03-8.39-1.31-11.32,3.22
				c-0.6,0.93-2.67,0.99-4.09,1.29c-2.4,0.52-4.82,0.91-7.23,1.35c-4.18,0-8.36,0-11.42,0
				C2160.72,1709.11,2158.46,1705.93,2156.2,1702.75z"/>
			<path fill="#1F2121" d="M2989.5,1635.49c-13.55-0.14-27.09-0.28-40.64-0.42c0.11-2.63,1.22-4.05,4.12-4.04
				c13.9,0.04,27.81,0,41.71-0.06c3-0.01,3.83,1.69,3.82,4.26c-0.55,0.15-1.1,0.3-1.65,0.45
				C2994.41,1635.61,2991.95,1635.55,2989.5,1635.49z"/>
			<path fill="#929790" d="M84.69,1474.86c-0.07,14.48-0.15,28.95-0.22,43.43c-1.28,0.1-2.57,0.19-3.85,0.29
				c-0.28-1.67-0.84-3.35-0.79-5.01c0.38-11.06,0.95-22.12,1.33-33.18C81.24,1477.7,81.55,1475.45,84.69,1474.86z"/>
			<path fill="#69877E" d="M71.57,1328.2c2.01,0.18,4.06,0.32,4.37,2.98c0.75,6.55,5.42,11.98,5.1,18.97
				c-0.13,2.87,4.81,4.03,4.07,7.87c-0.67,3.5,0.91,5.86,3.78,7.89c0.79,0.56,0.4,2.8,0.55,4.26c-1.39-0.53-2.79-1.05-4.18-1.58
				c-1.68-4.18-3.36-8.35-5.03-12.53c-2.42-6.1-4.92-12.07-5.46-18.86C74.54,1334.36,70.24,1332.16,71.57,1328.2z"/>
			<path fill="#424242" d="M2116.41,1617.33c0.06,7.46,0.16,14.91,0.17,22.37c0.01,7.08-0.66,14.29,4.4,20.27
				c-4.89-1.59-8.32-5.76-8.84-10.74c0.06-8.73,0.16-17.46,0.15-26.19C2112.29,1620.05,2112.56,1617.45,2116.41,1617.33z"/>
			<path fill="#69877E" d="M89.08,1410.57c0.52,13.88,0.82,27.77-1.73,41.51c-0.23,1.24-1.54,2.28-2.35,3.41
				c0.08-14.93,0.16-29.85,0.24-44.78C86.52,1410.67,87.8,1410.62,89.08,1410.57z"/>
			<path fill="#929790" d="M89.08,1410.57c-1.28,0.05-2.56,0.1-3.84,0.14c0.06-7.64,0.16-15.28,0.16-22.91
				c0.01-6.4-0.09-12.81-0.15-19.21c1.39,0.53,2.79,1.05,4.18,1.58C89.32,1383.63,89.2,1397.1,89.08,1410.57z"/>
			<path fill="#656666" d="M80.61,1518.57c1.29-0.09,2.57-0.19,3.85-0.29c0.03,10.94,0.04,21.87,0.09,32.81
				c0.02,2.82-2.09,2.97-4.02,3.41C80.56,1542.53,80.58,1530.55,80.61,1518.57z"/>
			<path fill="#AABAB6" d="M2996.86,1635.67c0.55-0.15,1.1-0.3,1.65-0.45c1.76,0.67,3.61,1.18,5.27,2.05c2.08,1.08,4,2.47,6.01,3.68
				c0.61,0.37,1.74,0.38,1.95,0.85c2.34,5.36,8.01,5.02,12.17,7.23c-4.64-0.6-9.38-0.84-13.89-1.98c-1.65-0.42-2.75-2.98-4.53-5.07
				c-1.48-0.24-3.67-0.59-5.92-0.95C2998.63,1639.16,2997.75,1637.42,2996.86,1635.67z"/>
			<path fill="#AABAB6" d="M3032.84,1655.19c6.7-0.36,11.66,3.31,16.83,6.84c3.1,2.11,6.8,3.35,10.23,4.98
				c-4.56-0.58-9.12-1.3-13.7-1.69c-3.69-0.31-1.99-6.3-6.51-5.72C3036.4,1660.03,3034.18,1658.14,3032.84,1655.19z"/>
			<path fill="#6D7A70" d="M1140.69,1666.99c6.09,0,12.17,0,18.31,0c0.55,2.6,0.9,4.24,1.25,5.88c-2.47,0.04-4.93,0.1-7.4,0.13
				C1147.78,1673.05,1143.17,1672.17,1140.69,1666.99z"/>
			<path fill="#798E8E" d="M575.63,1746.16c-0.13-1.82-0.26-3.64-0.39-5.46c4.52-0.03,9.04-0.05,13.57-0.08
				c2.13,1.42,5.14,2.13,4.71,5.68C587.55,1746.25,581.59,1746.21,575.63,1746.16z"/>
			<path fill="#6D7A70" d="M216.14,1760.02c1.41-0.05,2.83-0.07,4.24-0.16c3.06-0.18,4.31,1.35,4.14,4.28
				c-7.5,0.08-15.01,0.15-22.51,0.23c0.56-2.6,1.83-4.2,4.82-4.11C209.92,1760.34,213.03,1760.11,216.14,1760.02z"/>
			<path fill="#AABAB6" d="M273.9,1759.61c10.11-1.22,19.82-5.57,30.31-3.93c-1.15,3.03-3.73,3.9-6.55,3.93
				C289.74,1759.71,281.82,1759.62,273.9,1759.61z"/>
			<path fill="#474747" d="M593.51,1746.3c0.43-3.55-2.57-4.25-4.71-5.68c5.61,0,11.22,0,17.07,0c0.48,2.13,0.85,3.75,1.21,5.38
				c-0.63,0.18-1.26,0.36-1.89,0.54C601.3,1746.45,597.41,1746.37,593.51,1746.3z"/>
			<path fill="#BCC2C2" d="M2251.95,1697.23c5.95-0.04,11.9-0.07,17.84-0.11c-0.62,0.38-1.41,0.63-1.84,1.17
				c-4.35,5.55-10.31,5.12-16.34,4.51C2251.73,1700.95,2251.84,1699.09,2251.95,1697.23z"/>
			<path fill="#AABAB6" d="M1679.04,1697.2c6.98-0.09,13.96-0.19,20.93-0.28c-2.1,0.41-4.18,1.01-6.3,1.17
				c-2.46,0.19-4.36,0.44-6.21,2.79c-2.97,3.76-7.63,1.74-11.61,1.9C1676.91,1700.92,1677.98,1699.06,1679.04,1697.2z"/>
			<path fill="#6D7A70" d="M62.73,1305.61c2.08-0.05,4.04,0,4.2,2.84c0.16,2.87,0.2,5.41,3.16,7.62c1.54,1.15,1.07,5.01,1.51,7.64
				c-0.44-0.04-0.87-0.06-1.31-0.08c-1.16-1.02-3.09-1.88-3.34-3.09c-0.71-3.36-0.7-6.68-3.8-9.27
				C62.14,1310.42,62.82,1307.56,62.73,1305.61z"/>
			<path fill="#6D7A70" d="M440.6,1740.66c4.5,0.02,9,0.04,13.51,0.05c-0.12,1.83-0.23,3.66-0.35,5.49c-4.47,0-8.93,0-13.4,0
				C440.44,1744.36,440.52,1742.51,440.6,1740.66z"/>
			<path fill="#AABAB6" d="M228.92,1764.27c0.04-2.51,0.92-4.11,3.83-4.06c4.83,0.08,9.67,0,14.5-0.02
				c-0.26,2.51-1.24,4.16-4.17,4.1C238.36,1764.18,233.64,1764.27,228.92,1764.27z"/>
			<path fill="#929790" d="M2481.07,1672.78c0.25-1.67,0.51-3.34,0.86-5.63c4.46,0,8.66,0,12.85,0c-0.11,1.85-0.22,3.7-0.33,5.56
				C2489.99,1672.73,2485.53,1672.76,2481.07,1672.78z"/>
			<path fill="#474747" d="M440.6,1740.66c-0.08,1.85-0.16,3.69-0.24,5.54c-4.48,0.02-8.95,0.03-13.42,0.05
				c0.25-1.67,0.5-3.33,0.84-5.59C432.23,1740.66,436.41,1740.66,440.6,1740.66z"/>
			<path fill="#AABAB6" d="M2175.05,1713.2c2.41-0.44,4.83-0.84,7.23-1.35c1.42-0.31,3.49-0.36,4.09-1.29
				c2.93-4.54,7.25-3.25,11.32-3.22c-0.24,1.65-0.49,3.3-0.87,5.87C2189.49,1713.2,2182.27,1713.2,2175.05,1713.2z"/>
			<path fill="#929790" d="M2251.95,1697.23c-0.11,1.86-0.22,3.72-0.33,5.58c-4.47,0.01-8.95,0.02-13.42,0.04
				c0.24-1.63,0.49-3.26,0.84-5.62C2243.44,1697.23,2247.69,1697.23,2251.95,1697.23z"/>
			<path fill="#AABAB6" d="M2651.83,1648.81c2.65,0.16,5.31,0.32,7.96,0.48c-2.9,0.3-5.81,0.61-8.71,0.88
				c-3.28,0.3-6.5-0.37-8.94,3.47c-0.96,1.51-5.37,0.82-8.22,1.13c0.1-1.83,0.2-3.66,0.31-5.49
				C2640.09,1649.13,2645.96,1648.97,2651.83,1648.81z"/>
			<path fill="#6D7A70" d="M1488.34,1723.56c-2.49,0.64-4.7,1.54-4.34,4.77c-2.9,0.1-5.81,0.19-8.71,0.29
				c-1.69-0.16-3.38-0.31-5.08-0.47c1.02-1.23,1.92-3.36,3.08-3.52C1478.26,1723.96,1483.31,1723.87,1488.34,1723.56z"/>
			<path fill="#BCC2C2" d="M2494.44,1672.71c0.11-1.85,0.22-3.7,0.33-5.56c4.48,0.01,8.96,0.02,13.44,0.02
				c-0.91,1.71-1.81,3.43-2.93,5.53C2501.74,1672.71,2498.09,1672.71,2494.44,1672.71z"/>
			<path fill="#759088" d="M1118.05,1672.88c0.39-1.65,0.78-3.3,1.39-5.83c3.11,0,6.24,0,9.37,0c-0.5,1.58-1,3.17-1.7,5.4
				C1124.17,1672.59,1121.11,1672.73,1118.05,1672.88z"/>
			<path fill="#AABAB6" d="M453.76,1746.21c0.12-1.83,0.23-3.66,0.35-5.49c4.44-0.02,8.89-0.04,13.34-0.07
				c-1.96,1.52-5.33,1.91-4.53,5.64C459.86,1746.26,456.81,1746.24,453.76,1746.21z"/>
			<path fill="#BCC2C2" d="M768.65,1760.2c3.6,0.02,7.2,0.05,10.8,0.05c2.73,0,2.91,1.96,3.09,3.94c-3.35,0.04-6.69,0.03-10.04,0.14
				C769.59,1764.41,768.92,1762.52,768.65,1760.2z"/>
			<path fill="#656666" d="M795.9,1764.26c-0.07-2.47-0.17-4.97,3.55-4.32c1.98,0.04,3.97,0.18,5.96,0.11
				c2.99-0.1,3.84,1.68,3.97,4.21C804.88,1764.26,800.39,1764.26,795.9,1764.26z"/>
			<path fill="#BCC2C2" d="M1981.81,1563.72c2.57,0.48,5.16,0.9,7.71,1.47c1.85,0.42,3.66,1.05,5.48,1.59
				c0.14,2.4,0.28,4.8,0.42,7.2c-1.16-0.19-3.33-0.33-3.34-0.58C1991.78,1566.79,1985.13,1567.01,1981.81,1563.72z"/>
			<path fill="#759088" d="M1679.04,1697.2c-1.06,1.86-2.13,3.72-3.19,5.58c-3.01-0.01-6.02-0.02-9.02-0.03
				c0.12-1.85,0.23-3.69,0.35-5.53C1671.13,1697.21,1675.08,1697.2,1679.04,1697.2z"/>
			<path fill="#343D3A" d="M2616.02,1654.82c0.23-1.61,0.47-3.23,0.8-5.54c2.94,0,5.72,0,8.49,0c-0.1,1.84-0.2,3.68-0.3,5.51
				C2622.02,1654.8,2619.02,1654.81,2616.02,1654.82z"/>
			<path fill="#6D7A70" d="M2625.02,1654.79c0.1-1.84,0.2-3.68,0.3-5.51c2.97,0,5.94,0.01,8.91,0.01c-0.1,1.83-0.2,3.66-0.31,5.49
				C2630.95,1654.78,2627.98,1654.79,2625.02,1654.79z"/>
			<path fill="#474747" d="M1923.53,1533.75c0.62-6.15,0.62-6.15,8.13-5.6c0.22,1.71,0.46,3.53,0.7,5.36
				C1929.42,1533.59,1926.47,1533.67,1923.53,1533.75z"/>
			<path fill="#474747" d="M1667.17,1697.21c-0.12,1.84-0.23,3.69-0.35,5.53c-2.41,0.1-4.82,0.19-7.23,0.29
				c-0.61-0.19-1.21-0.38-1.82-0.57C1658.88,1696.8,1658.88,1696.8,1667.17,1697.21z"/>
			<path fill="#798E8E" d="M52.27,1277.1c5.6,2.42,6.38,6.99,5.49,12.3C51.92,1287.09,53.32,1281.55,52.27,1277.1z"/>
			<path fill="#BCC2C2" d="M1492.87,1728.21c0.02-2.46,0.82-4.16,3.69-4.04c1.9,0.08,3.8,0.05,5.7,0.07
				C1501.23,1730.51,1496.46,1727.95,1492.87,1728.21z"/>
			<path fill="#6D7A70" d="M1878.33,1573.97c-0.04-6.68-0.04-6.68,4.62-7.37c-0.08,1.21-0.29,2.42-0.2,3.62
				C1883.01,1573.57,1881.33,1574.52,1878.33,1573.97z"/>
			<path fill="#343D3A" d="M1995.43,1573.99c-0.14-2.4-0.28-4.8-0.42-7.2c4.61,0.47,4.61,0.47,4.85,7.27
				C1998.38,1574.04,1996.9,1574.01,1995.43,1573.99z"/>
			<path fill="#929790" d="M89.52,1646.09c4.7,0.01,5.55,3.38,6.13,6.99c-0.41,0.22-1.15,0.66-1.18,0.63
				C92.79,1651.19,91.16,1648.64,89.52,1646.09z"/>
			<path fill="#798E8E" d="M58.55,1293.72c3.55,1.42,2.61,4.55,2.75,7.26C57.72,1299.57,56.92,1297.1,58.55,1293.72z"/>
			<path fill="#424242" d="M2121.35,1663.97c2.22,0,4.71-0.38,4.35,3.16C2124.24,1666.08,2122.79,1665.02,2121.35,1663.97z"/>
			<polygon fill="#334D56" points="27.66,1215.83 27.5,1215.78 27.58,1216.31 			"/>
			<path fill="#69877E" d="M70.29,1323.63c0.44,0.02,0.87,0.04,1.31,0.08c-0.09,0.55-0.18,1.1-0.26,1.65
				C70.99,1324.79,70.64,1324.21,70.29,1323.63z"/>
			<path fill="#5381B5" d="M2.6,385.37c-0.09-2.74-0.24-5.47-0.25-8.21c-0.01-49.81-0.01-99.62,0-149.43c0-2.49,0.16-4.97,0.25-7.46
				c0.51,2.05,1.46,4.11,1.47,6.16c0.08,50.91,0.08,101.82,0,152.72C4.06,381.23,3.11,383.3,2.6,385.37z"/>
			<path fill="#5381B5" d="M5.67,661.5c-0.48,0.37-0.96,0.75-1.43,1.12c-0.05-0.56-0.11-1.12-0.16-1.67
				C4.6,661.13,5.13,661.31,5.67,661.5z"/>
			<path fill="#424242" d="M2342.2,1395.17c-5.61-0.48-11.22-0.96-17.17-1.46c-0.81-1.56-1.69-3.24-2.9-5.58
				c-6.21,0-12.61,0.13-19-0.06c-2.66-0.08-5.48-0.42-7.89-1.44c-1.39-0.59-2.09-2.78-3.1-4.25c4.22-0.02,8.44-0.07,12.66-0.04
				c2.22,0.02,4.27,0.07,5.75,2.5c0.68,1.11,2.88,1.65,4.45,1.8c3.46,0.32,6.95,0.21,10.43,0.3c4.18,0.1,8.35-0.36,10.85,4.55
				C2337.18,1393.25,2340.16,1393.97,2342.2,1395.17z"/>
			<path fill="#14200F" d="M2287.78,1381.98c-13.52,0-27.05,0-40.57,0c0.02-2.57,0.84-4.29,3.86-4.28
				c10.96,0.05,21.92,0.03,32.88-0.02C2286.96,1377.67,2287.76,1379.43,2287.78,1381.98z"/>
			<path fill="#505757" d="M2755.73,1635.87c-0.11,2.13-0.57,3.95-3.27,3.95c-9.61,0.02-19.23,0.07-28.84,0.02
				c-0.54,0-1.07-0.85-1.6-1.27c1.03-3.05,3.69-2.95,6.14-2.95C2737.34,1635.64,2746.53,1635.78,2755.73,1635.87z"/>
			<path fill="#343D3A" d="M2359.7,1401.66c-1.98-0.04-3.96-0.02-5.93-0.13c-0.7-0.04-1.39-0.41-2.42-0.73
				c-0.26-1.61-0.53-3.27-0.81-4.93c2.57,0,5.14,0,8.11,0C2359.05,1398.08,2359.38,1399.87,2359.7,1401.66z"/>
			<path fill="#343D3A" d="M2477.91,1496.26c-2.91-0.1-4.55-1.36-4.34-4.52c0.1-1.45-0.07-2.92-0.11-4.38
				C2478.08,1489.07,2478.08,1489.07,2477.91,1496.26z"/>
			<path fill="#6D7A70" d="M1524.46,1717.69c-1.49,2.99-3.26,5.37-7.26,4.85c-2.45-0.32-4.97-0.03-7.46-0.01
				c0.35-1.92,0.24-4.2,3.05-4.35C1516.67,1717.98,1520.56,1717.85,1524.46,1717.69z"/>
			<path fill="#020202" d="M2413.23,1672.55c-2.1,1.42-4.19,2.85-5.99,4.06c-3.23-1.66-6.5-3.34-10.71-5.5
				c-0.27-2.87-2.86-3.86-6.79-4.56c-4.54-0.82-9.38-1.23-12.91-5.98c-2.18-2.93-7.08-4.43-11.03-5.29
				c-3.74-0.81-6.84-1.27-6.54-5.46c-6.38-1.44-11.92-2.69-17.46-3.94c-0.21-4.88-0.42-9.75-0.64-14.63c0.73-7.02,0.73-7.02-3.9-9.3
				c-0.14-1.9-0.28-3.8-0.42-5.69c0.49-6.73,0.49-6.73-4.04-7.83c-0.59-4.38-2.83-8.03-5.16-11.63c0.48-3.42,0.21-7.16,1.56-10.19
				c3.72-8.33,8.19-16.32,12.23-24.52c2.13-4.32,3.72-8.92,6.02-13.15c3.38-6.23,7.55-12.05,10.63-18.41
				c1.54-3.18,3.38-3.07,5.92-2.72c1.7,2.99,3.23,5.72,7.21,6.78c3,0.8,5.24,3.09,6.98,6.64c2.54,5.18,7.33,9.25,11.16,13.8
				c0.46,0.55,1.35,1.13,1.31,1.63c-0.37,4.39,3.68,6.41,5.1,9.81c0.21,3.17-1.8,7.46,3.96,7.81c1.01,3.32-0.33,7.66,4.09,9.52
				c0.04,6.36,6.71,10.57,5.51,17.48c-0.48,2.75-0.17,5.44,2.66,7.89c1.69,1.47,1.17,5.49,1.64,8.37
				c0.02,13.99,0.04,27.98,0.06,41.97C2413.55,1663.85,2413.39,1668.2,2413.23,1672.55z"/>
			<path fill="#020202" d="M2265.23,1563.53c-10.04,1.18-20.07,2.35-30.48,3.57c-0.56,2.21-1.08,4.26-1.46,5.75
				c-4.69,1.64-8.79,3.06-12.88,4.49c-6.73,1.18-12.15-3.57-18.77-3.8c-0.64-2.25-1.22-4.31-1.72-6.07
				c-6.87-2.28-14.56-1.77-18.44-9.05c-0.25-0.46-1.35-0.45-2.05-0.7c-2.27-0.82-4.52-2.31-6.8-2.35c-5.66-0.1-8.28-6.48-14.33-6.22
				c-2.09,0.09-4.43-3.35-6.43-5.41c-0.34-0.35,0.47-1.82,0.75-2.77c0.18-0.97,0.06-2.57,0.59-2.83
				c6.89-3.35,10.57-10.31,16.82-14.68c5.39-3.78,11.34-6.96,16.5-11.26c4-3.33,7.96-7.8,14.17-7.26c6.31-1.27,12.88-2,16.62-8.36
				c4.18-0.49,8.36-0.95,12.53-1.48c5.39-0.68,10.76-1.93,16.16-2.04c12.94-0.29,25.88-0.07,38.83-0.02
				c2.49,0.01,4.98,0.13,7.46,0.28c2.99,0.18,4.57,1.86,4.46,4.84c-0.1,2.61,0.59,5.34-2.41,7.31c-1.28,0.85-1.6,3.27-2.17,5.04
				c-0.45,1.38-0.2,3.8-0.97,4.14c-5.48,2.42-2.21,10-7.68,12.54c-1.04,0.48-0.18,4.33-1.34,5.44c-4.25,4.07-4.97,9.91-8.08,14.51
				c-2.21,3.28-3.43,7.52-6.25,10.01C2265.51,1559.2,2265.5,1561.17,2265.23,1563.53z"/>
			<path fill="#424242" d="M2265.23,1563.53c0.27-2.36,0.28-4.33,2.62-6.39c2.82-2.49,4.03-6.73,6.25-10.01
				c3.1-4.6,3.83-10.44,8.08-14.51c1.16-1.11,0.3-4.96,1.34-5.44c5.47-2.53,2.21-10.12,7.68-12.54c0.77-0.34,0.52-2.76,0.97-4.14
				c0.57-1.77,0.89-4.2,2.17-5.04c3-1.98,2.31-4.71,2.41-7.31c0.12-2.98-1.46-4.65-4.46-4.84c-2.48-0.15-4.97-0.27-7.46-0.28
				c-12.94-0.05-25.89-0.26-38.83,0.02c-5.4,0.12-10.77,1.36-16.16,2.04c-4.17,0.53-8.35,0.99-12.53,1.48
				c-3.74,6.36-10.32,7.09-16.62,8.36c0.44-3.49,2.8-4.4,5.86-4.34c2.47,0.04,4.22-0.59,4.91-3.44c0.24-1.01,2-2.17,3.21-2.36
				c8.78-1.38,17.6-2.54,26.95-3.84c0.99-3.97,3.65-5.66,8.38-5.44c9.2,0.42,18.43,0.1,27.64,0.11c2.51,0,4.81-0.04,5.83,3.29
				c0.38,1.23,3.18,2.76,4.51,2.48c8.92-1.94,15.96,4.83,24.37,4.89c2.92,3.85,7.46,5.17,11.49,7.26c1.27,0.66,2.89,1.69,4.03,1.37
				c5.9-1.63,8.36,4.21,12.8,5.7c1.1,0.37,1.47,2.9,2.12,4.31c4.99,1.17,9.77,2.04,12.94,6.54c0.78,1.1,2.97,1.37,4.57,1.69
				c2.63,0.54,3.94,1.92,3.73,4.64c-2.54-0.35-4.39-0.45-5.92,2.72c-3.08,6.36-7.25,12.18-10.63,18.41
				c-2.29,4.23-3.89,8.83-6.02,13.15c-4.04,8.19-8.51,16.19-12.23,24.52c-1.35,3.02-1.09,6.77-1.56,10.19
				c-4.36-0.12-6.42-4.22-7.68-6.74c-1.5-2.99-3.82-4.27-5.9-6.08c-1.62-1.41-3.1-2.39-4.22-4.61c-2.25-4.47-7.09-5.49-12.15-5.69
				c-0.63-2.15-1.24-4.21-2.06-6.99C2285.22,1568.28,2275.7,1562.26,2265.23,1563.53z"/>
			<path fill="#424242" d="M2152.63,1540.96c-0.28,0.95-1.09,2.42-0.75,2.77c2,2.05,4.34,5.49,6.43,5.41
				c6.05-0.26,8.67,6.12,14.33,6.22c2.28,0.04,4.53,1.53,6.8,2.35c0.69,0.25,1.8,0.24,2.05,0.7c3.88,7.29,11.56,6.77,18.44,9.05
				c0.5,1.76,1.09,3.83,1.72,6.07c6.61,0.23,12.04,4.98,18.77,3.8c-0.03,2.8-0.28,5-3.7,6.32c-3.01,1.17-5.67,3.23-7.5,6.68
				c-1.88,3.53-5.72,5.99-8.6,9.01c-1.08,1.13-2.45,2.46-2.66,3.85c-0.39,2.56-0.5,4.83-3.43,6c-0.73,0.29-0.94,2.12-1.18,3.29
				c-0.25,1.2,0.21,2.84-0.44,3.64c-5.96,7.31-3.34,16.15-4.54,24.3c-1.28-0.65-2.62-1.2-3.83-1.98c-1.32-0.85-2.39-2.38-3.8-2.76
				c-2.34-0.64-4.52-0.46-6.19-3.21c-0.93-1.53-4.4-1.52-7.3-2.38c-0.57-1.23-1.36-2.96-1.9-4.13c-4.66-1.2-8.78-2.12-12.78-3.38
				c-1.53-0.48-2.8-1.75-4.21-2.62c-1.36-0.84-2.66-1.91-4.14-2.37c-2.83-0.88-5.8-1.27-8.65-2.11c-2.57-0.75-5.17-1.43-5.66-5
				c-0.13-0.93-2.69-1.52-4.13-2.26c-1-3.17-6.27-4.15-4.49-8.75c0.13-3.1-0.75-6.37,3.2-8.33c1.06-0.53,1.02-3.54,1.23-5.44
				c0.4-3.51-0.67-7.12,3.42-9.81c1.56-1.02,1.18-5,1.8-8.21c3.28-2.04,6.86-4.55,7.52-9.54c0.16-1.24,1.45-2.79,2.61-3.33
				c2.26-1.03,2.34-2.75,2.77-4.75C2144.87,1545.35,2147.78,1542.16,2152.63,1540.96z"/>
			<path fill="#474747" d="M2413.7,1659.49c-0.02-13.99-0.04-27.98-0.06-41.97c3.8,0.7,4.38,3.69,4.42,6.71
				c0.13,9.87,0.05,19.74,0.09,29.61C2418.17,1656.95,2417.14,1659.15,2413.7,1659.49z"/>
			<path fill="#424242" d="M2121.29,1599.5c-1.78,4.6,3.49,5.58,4.49,8.75c-3,0.09-6,0.18-8.99,0.26
				C2115.82,1602.55,2116.7,1600.79,2121.29,1599.5z"/>
			<path fill="#252831" d="M2399.74,1574.27c-5.76-0.35-3.75-4.64-3.96-7.81C2400.32,1567.56,2400.32,1567.56,2399.74,1574.27z"/>
			<path fill="#474747" d="M2206.83,1703.02c-1.71,0.66-3.48,1.19-5.11,2.01c-2.41,1.22-3.64,0.56-3.95-2.05
				c-0.1-3.08-0.43-5.84,2.54-8.47c1.67-1.48,1.31-5.25,1.87-7.99c1.72,1.21,3.49,2.35,5.15,3.64c2.85,2.22,5.62,4.53,8.43,6.81
				c0.13,3.18,0.21,6.33-4.44,5.95C2209.82,1702.95,2208.32,1702.98,2206.83,1703.02z"/>
			<path fill="#343D3A" d="M2192.9,1665.79c-2.44-0.34-4.25-1.25-4.1-4.19c0.11-2.22,0.05-4.45,0.06-6.67
				c2.44,0.01,4.38,0.64,4.3,3.61C2193.1,1660.95,2192.99,1663.37,2192.9,1665.79z"/>
			<path fill="#424242" d="M2337.26,1621.94c4.63,2.28,4.63,2.28,3.9,9.3c-2.1-0.23-3.91-0.78-3.91-3.42
				C2337.26,1625.87,2337.26,1623.91,2337.26,1621.94z"/>
			<path fill="#343D3A" d="M2332.81,1608.42c4.52,1.11,4.52,1.11,4.04,7.83C2331.28,1615.81,2332.88,1611.68,2332.81,1608.42z"/>
			<path fill="#666666" d="M2206.83,1703.02c1.5-0.03,2.99-0.07,4.49-0.1c-0.86,0.96-1.72,1.93-2.58,2.89
				C2208.1,1704.88,2207.46,1703.95,2206.83,1703.02z"/>
		</g>
	</g>
</g>
<g id="Patterns" display="none">
	<g id="Reef_1" display="inline">
		<rect x="-179.28" y="1547.1" fill="#EBDB99" width="35.61" height="71.22"/>
		<rect x="-143.67" y="1547.1" fill="#DCCC8C" width="35.61" height="71.22"/>
	</g>
</g>
<g id="Sky">
	<linearGradient id="SVGID_1_" gradientUnits="userSpaceOnUse" x1="1620" y1="-9.094947e-13" x2="1620" y2="659.6129">
		<stop  offset="0" style="stop-color:#73BAF4"/>
		<stop  offset="1" style="stop-color:#93CEFE"/>
	</linearGradient>
	<rect fill="url(#SVGID_1_)" width="3240" height="659.61"/>
</g>
<g id="Water">
	
		<linearGradient id="SVGID_00000123425497841954858110000006459324708054858112_" gradientUnits="userSpaceOnUse" x1="1620" y1="659.6129" x2="1620" y2="2430">
		<stop  offset="0" style="stop-color:#7CC0F0"/>
		<stop  offset="1" style="stop-color:#0C68BA"/>
	</linearGradient>
	<rect x="0" y="659.61" fill="url(#SVGID_00000123425497841954858110000006459324708054858112_)" width="3240" height="1770.39"/>
	<rect y="638.71" fill="#ABDDFF" width="3240" height="37.16"/>
</g>
<g id="Terrain">
	<polygon fill="url(#Reef_1_00000077282531171907651920000006609976611856116369_)" points="0,1151.23 77.42,1626.58 
		180.39,1765.16 518.71,1736.52 832.26,1765.16 1134.97,1667.61 1448.52,1731.87 1738.06,1694.71 1928.52,1530.58 2092.65,1630.45 
		2163.87,1714.06 2718.97,1640.52 2996.9,1635.1 3111.48,1693.16 3240,1679.23 3240,2430 0,2430 	"/>
</g>
</svg>
